<?plantuml 1.2026.2?><svg xmlns="http://www.w3.org/2000/svg" xmlns:xlink="http://www.w3.org/1999/xlink" contentStyleType="text/css" data-diagram-type="CLASS" height="360px" preserveAspectRatio="none" style="width:2530px;height:360px;background:#FFFFFF;" version="1.1" viewBox="0 0 2530 360" width="2530px" zoomAndPan="magnify"><defs/><g><!--cluster PKG_EXC--><g class="cluster" data-qualified-name="PKG_EXC" data-source-line="31" id="ent0003"><path d="M11,66 L206.9043,66 A7.5,7.5 0 0 1 211.9043,71 L218.9043,85.9688 L2073,85.9688 A5,5 0 0 1 2078,90.9688 L2078,161 A5,5 0 0 1 2073,166 L11,166 A5,5 0 0 1 6,161 L6,71 A5,5 0 0 1 11,66" fill="none" style="stroke:#000000;stroke-width:2;"/><line style="stroke:#000000;stroke-width:2;" x1="6" x2="218.9043" y1="85.9688" y2="85.9688"/><text fill="#000000" font-family="'Segoe UI'" font-size="12" font-weight="bold" lengthAdjust="spacing" textLength="199.9043" x="10" y="79.1387">TheKnife-Common - Eccezioni</text></g><!--class InvalidEMailException--><g class="entity" data-qualified-name="PKG_EXC.InvalidEMailException" data-source-line="32" id="ent0004"><rect fill="#F8FAFC" height="51.6094" rx="5" ry="5" style="stroke:#94A3B8;stroke-width:0.5;" width="126.1836" x="1936" y="98"/><rect fill="#F1F5F9" height="35.6094" rx="5" ry="5" style="stroke:#F1F5F9;stroke-width:0.5;" width="126.1836" x="1936" y="98"/><rect fill="#F1F5F9" height="5" style="stroke:#F1F5F9;stroke-width:0.5;" width="126.1836" x="1936" y="128.6094"/><rect fill="none" height="51.6094" rx="5" ry="5" style="stroke:#94A3B8;stroke-width:0.5;" width="126.1836" x="1936" y="98"/><text fill="#000000" font-family="Segoe UI" font-size="11" font-style="italic" lengthAdjust="spacing" textLength="67.7241" x="1965.2297" y="113.2104">&#171;exception&#187;</text><text fill="#000000" font-family="'Segoe UI'" font-size="11" lengthAdjust="spacing" textLength="120.1836" x="1939" y="126.0151">InvalidEMailException</text><line style="stroke:#94A3B8;stroke-width:0.5;" x1="1937" x2="2061.1836" y1="133.6094" y2="133.6094"/><line style="stroke:#94A3B8;stroke-width:0.5;" x1="1937" x2="2061.1836" y1="141.6094" y2="141.6094"/></g><!--class InvalidPasswordException--><g class="entity" data-qualified-name="PKG_EXC.InvalidPasswordException" data-source-line="33" id="ent0005"><rect fill="#F8FAFC" height="51.6094" rx="5" ry="5" style="stroke:#94A3B8;stroke-width:0.5;" width="148.957" x="1751.5" y="98"/><rect fill="#F1F5F9" height="35.6094" rx="5" ry="5" style="stroke:#F1F5F9;stroke-width:0.5;" width="148.957" x="1751.5" y="98"/><rect fill="#F1F5F9" height="5" style="stroke:#F1F5F9;stroke-width:0.5;" width="148.957" x="1751.5" y="128.6094"/><rect fill="none" height="51.6094" rx="5" ry="5" style="stroke:#94A3B8;stroke-width:0.5;" width="148.957" x="1751.5" y="98"/><text fill="#000000" font-family="Segoe UI" font-size="11" font-style="italic" lengthAdjust="spacing" textLength="67.7241" x="1792.1165" y="113.2104">&#171;exception&#187;</text><text fill="#000000" font-family="'Segoe UI'" font-size="11" lengthAdjust="spacing" textLength="142.957" x="1754.5" y="126.0151">InvalidPasswordException</text><line style="stroke:#94A3B8;stroke-width:0.5;" x1="1752.5" x2="1899.457" y1="133.6094" y2="133.6094"/><line style="stroke:#94A3B8;stroke-width:0.5;" x1="1752.5" x2="1899.457" y1="141.6094" y2="141.6094"/></g><!--class InvalidUsernameException--><g class="entity" data-qualified-name="PKG_EXC.InvalidUsernameException" data-source-line="34" id="ent0006"><rect fill="#F8FAFC" height="51.6094" rx="5" ry="5" style="stroke:#94A3B8;stroke-width:0.5;" width="153.1572" x="1563.5" y="98"/><rect fill="#F1F5F9" height="35.6094" rx="5" ry="5" style="stroke:#F1F5F9;stroke-width:0.5;" width="153.1572" x="1563.5" y="98"/><rect fill="#F1F5F9" height="5" style="stroke:#F1F5F9;stroke-width:0.5;" width="153.1572" x="1563.5" y="128.6094"/><rect fill="none" height="51.6094" rx="5" ry="5" style="stroke:#94A3B8;stroke-width:0.5;" width="153.1572" x="1563.5" y="98"/><text fill="#000000" font-family="Segoe UI" font-size="11" font-style="italic" lengthAdjust="spacing" textLength="67.7241" x="1606.2166" y="113.2104">&#171;exception&#187;</text><text fill="#000000" font-family="'Segoe UI'" font-size="11" lengthAdjust="spacing" textLength="147.1572" x="1566.5" y="126.0151">InvalidUsernameException</text><line style="stroke:#94A3B8;stroke-width:0.5;" x1="1564.5" x2="1715.6572" y1="133.6094" y2="133.6094"/><line style="stroke:#94A3B8;stroke-width:0.5;" x1="1564.5" x2="1715.6572" y1="141.6094" y2="141.6094"/></g><!--class InvalidSessionRequestException--><g class="entity" data-qualified-name="PKG_EXC.InvalidSessionRequestException" data-source-line="35" id="ent0007"><rect fill="#F8FAFC" height="51.6094" rx="5" ry="5" style="stroke:#94A3B8;stroke-width:0.5;" width="184.0356" x="1344" y="98"/><rect fill="#F1F5F9" height="35.6094" rx="5" ry="5" style="stroke:#F1F5F9;stroke-width:0.5;" width="184.0356" x="1344" y="98"/><rect fill="#F1F5F9" height="5" style="stroke:#F1F5F9;stroke-width:0.5;" width="184.0356" x="1344" y="128.6094"/><rect fill="none" height="51.6094" rx="5" ry="5" style="stroke:#94A3B8;stroke-width:0.5;" width="184.0356" x="1344" y="98"/><text fill="#000000" font-family="Segoe UI" font-size="11" font-style="italic" lengthAdjust="spacing" textLength="67.7241" x="1402.1558" y="113.2104">&#171;exception&#187;</text><text fill="#000000" font-family="'Segoe UI'" font-size="11" lengthAdjust="spacing" textLength="178.0356" x="1347" y="126.0151">InvalidSessionRequestException</text><line style="stroke:#94A3B8;stroke-width:0.5;" x1="1345" x2="1527.0356" y1="133.6094" y2="133.6094"/><line style="stroke:#94A3B8;stroke-width:0.5;" x1="1345" x2="1527.0356" y1="141.6094" y2="141.6094"/></g><!--class InvalidRatingException--><g class="entity" data-qualified-name="PKG_EXC.InvalidRatingException" data-source-line="36" id="ent0008"><rect fill="#F8FAFC" height="51.6094" rx="5" ry="5" style="stroke:#94A3B8;stroke-width:0.5;" width="132.5967" x="1175.5" y="98"/><rect fill="#F1F5F9" height="35.6094" rx="5" ry="5" style="stroke:#F1F5F9;stroke-width:0.5;" width="132.5967" x="1175.5" y="98"/><rect fill="#F1F5F9" height="5" style="stroke:#F1F5F9;stroke-width:0.5;" width="132.5967" x="1175.5" y="128.6094"/><rect fill="none" height="51.6094" rx="5" ry="5" style="stroke:#94A3B8;stroke-width:0.5;" width="132.5967" x="1175.5" y="98"/><text fill="#000000" font-family="Segoe UI" font-size="11" font-style="italic" lengthAdjust="spacing" textLength="67.7241" x="1207.9363" y="113.2104">&#171;exception&#187;</text><text fill="#000000" font-family="'Segoe UI'" font-size="11" lengthAdjust="spacing" textLength="126.5967" x="1178.5" y="126.0151">InvalidRatingException</text><line style="stroke:#94A3B8;stroke-width:0.5;" x1="1176.5" x2="1307.0967" y1="133.6094" y2="133.6094"/><line style="stroke:#94A3B8;stroke-width:0.5;" x1="1176.5" x2="1307.0967" y1="141.6094" y2="141.6094"/></g><!--class InvalidCoordinatesException--><g class="entity" data-qualified-name="PKG_EXC.InvalidCoordinatesException" data-source-line="37" id="ent0009"><rect fill="#F8FAFC" height="51.6094" rx="5" ry="5" style="stroke:#94A3B8;stroke-width:0.5;" width="163.1152" x="977.5" y="98"/><rect fill="#F1F5F9" height="35.6094" rx="5" ry="5" style="stroke:#F1F5F9;stroke-width:0.5;" width="163.1152" x="977.5" y="98"/><rect fill="#F1F5F9" height="5" style="stroke:#F1F5F9;stroke-width:0.5;" width="163.1152" x="977.5" y="128.6094"/><rect fill="none" height="51.6094" rx="5" ry="5" style="stroke:#94A3B8;stroke-width:0.5;" width="163.1152" x="977.5" y="98"/><text fill="#000000" font-family="Segoe UI" font-size="11" font-style="italic" lengthAdjust="spacing" textLength="67.7241" x="1025.1956" y="113.2104">&#171;exception&#187;</text><text fill="#000000" font-family="'Segoe UI'" font-size="11" lengthAdjust="spacing" textLength="157.1152" x="980.5" y="126.0151">InvalidCoordinatesException</text><line style="stroke:#94A3B8;stroke-width:0.5;" x1="978.5" x2="1139.6152" y1="133.6094" y2="133.6094"/><line style="stroke:#94A3B8;stroke-width:0.5;" x1="978.5" x2="1139.6152" y1="141.6094" y2="141.6094"/></g><!--class TextTooLongException--><g class="entity" data-qualified-name="PKG_EXC.TextTooLongException" data-source-line="38" id="ent0010"><rect fill="#F8FAFC" height="51.6094" rx="5" ry="5" style="stroke:#94A3B8;stroke-width:0.5;" width="131.6299" x="810" y="98"/><rect fill="#F1F5F9" height="35.6094" rx="5" ry="5" style="stroke:#F1F5F9;stroke-width:0.5;" width="131.6299" x="810" y="98"/><rect fill="#F1F5F9" height="5" style="stroke:#F1F5F9;stroke-width:0.5;" width="131.6299" x="810" y="128.6094"/><rect fill="none" height="51.6094" rx="5" ry="5" style="stroke:#94A3B8;stroke-width:0.5;" width="131.6299" x="810" y="98"/><text fill="#000000" font-family="Segoe UI" font-size="11" font-style="italic" lengthAdjust="spacing" textLength="67.7241" x="841.9529" y="113.2104">&#171;exception&#187;</text><text fill="#000000" font-family="'Segoe UI'" font-size="11" lengthAdjust="spacing" textLength="125.6299" x="813" y="126.0151">TextTooLongException</text><line style="stroke:#94A3B8;stroke-width:0.5;" x1="811" x2="940.6299" y1="133.6094" y2="133.6094"/><line style="stroke:#94A3B8;stroke-width:0.5;" x1="811" x2="940.6299" y1="141.6094" y2="141.6094"/></g><!--class ReviewNotExistsException--><g class="entity" data-qualified-name="PKG_EXC.ReviewNotExistsException" data-source-line="39" id="ent0011"><rect fill="#F8FAFC" height="51.6094" rx="5" ry="5" style="stroke:#94A3B8;stroke-width:0.5;" width="151.6318" x="623" y="98"/><rect fill="#F1F5F9" height="35.6094" rx="5" ry="5" style="stroke:#F1F5F9;stroke-width:0.5;" width="151.6318" x="623" y="98"/><rect fill="#F1F5F9" height="5" style="stroke:#F1F5F9;stroke-width:0.5;" width="151.6318" x="623" y="128.6094"/><rect fill="none" height="51.6094" rx="5" ry="5" style="stroke:#94A3B8;stroke-width:0.5;" width="151.6318" x="623" y="98"/><text fill="#000000" font-family="Segoe UI" font-size="11" font-style="italic" lengthAdjust="spacing" textLength="67.7241" x="664.9539" y="113.2104">&#171;exception&#187;</text><text fill="#000000" font-family="'Segoe UI'" font-size="11" lengthAdjust="spacing" textLength="145.6318" x="626" y="126.0151">ReviewNotExistsException</text><line style="stroke:#94A3B8;stroke-width:0.5;" x1="624" x2="773.6318" y1="133.6094" y2="133.6094"/><line style="stroke:#94A3B8;stroke-width:0.5;" x1="624" x2="773.6318" y1="141.6094" y2="141.6094"/></g><!--class AnswerAlreadyExistsException--><g class="entity" data-qualified-name="PKG_EXC.AnswerAlreadyExistsException" data-source-line="40" id="ent0012"><rect fill="#F8FAFC" height="51.6094" rx="5" ry="5" style="stroke:#94A3B8;stroke-width:0.5;" width="175.2378" x="412.5" y="98"/><rect fill="#F1F5F9" height="35.6094" rx="5" ry="5" style="stroke:#F1F5F9;stroke-width:0.5;" width="175.2378" x="412.5" y="98"/><rect fill="#F1F5F9" height="5" style="stroke:#F1F5F9;stroke-width:0.5;" width="175.2378" x="412.5" y="128.6094"/><rect fill="none" height="51.6094" rx="5" ry="5" style="stroke:#94A3B8;stroke-width:0.5;" width="175.2378" x="412.5" y="98"/><text fill="#000000" font-family="Segoe UI" font-size="11" font-style="italic" lengthAdjust="spacing" textLength="67.7241" x="466.2568" y="113.2104">&#171;exception&#187;</text><text fill="#000000" font-family="'Segoe UI'" font-size="11" lengthAdjust="spacing" textLength="169.2378" x="415.5" y="126.0151">AnswerAlreadyExistsException</text><line style="stroke:#94A3B8;stroke-width:0.5;" x1="413.5" x2="586.7378" y1="133.6094" y2="133.6094"/><line style="stroke:#94A3B8;stroke-width:0.5;" x1="413.5" x2="586.7378" y1="141.6094" y2="141.6094"/></g><!--class AnswerNotExistsException--><g class="entity" data-qualified-name="PKG_EXC.AnswerNotExistsException" data-source-line="41" id="ent0013"><rect fill="#F8FAFC" height="51.6094" rx="5" ry="5" style="stroke:#94A3B8;stroke-width:0.5;" width="152.4053" x="225" y="98"/><rect fill="#F1F5F9" height="35.6094" rx="5" ry="5" style="stroke:#F1F5F9;stroke-width:0.5;" width="152.4053" x="225" y="98"/><rect fill="#F1F5F9" height="5" style="stroke:#F1F5F9;stroke-width:0.5;" width="152.4053" x="225" y="128.6094"/><rect fill="none" height="51.6094" rx="5" ry="5" style="stroke:#94A3B8;stroke-width:0.5;" width="152.4053" x="225" y="98"/><text fill="#000000" font-family="Segoe UI" font-size="11" font-style="italic" lengthAdjust="spacing" textLength="67.7241" x="267.3406" y="113.2104">&#171;exception&#187;</text><text fill="#000000" font-family="'Segoe UI'" font-size="11" lengthAdjust="spacing" textLength="146.4053" x="228" y="126.0151">AnswerNotExistsException</text><line style="stroke:#94A3B8;stroke-width:0.5;" x1="226" x2="376.4053" y1="133.6094" y2="133.6094"/><line style="stroke:#94A3B8;stroke-width:0.5;" x1="226" x2="376.4053" y1="141.6094" y2="141.6094"/></g><!--class RestaurantCreationException--><g class="entity" data-qualified-name="PKG_EXC.RestaurantCreationException" data-source-line="42" id="ent0014"><rect fill="#F8FAFC" height="51.6094" rx="5" ry="5" style="stroke:#94A3B8;stroke-width:0.5;" width="167.8257" x="22" y="98"/><rect fill="#F1F5F9" height="35.6094" rx="5" ry="5" style="stroke:#F1F5F9;stroke-width:0.5;" width="167.8257" x="22" y="98"/><rect fill="#F1F5F9" height="5" style="stroke:#F1F5F9;stroke-width:0.5;" width="167.8257" x="22" y="128.6094"/><rect fill="none" height="51.6094" rx="5" ry="5" style="stroke:#94A3B8;stroke-width:0.5;" width="167.8257" x="22" y="98"/><text fill="#000000" font-family="Segoe UI" font-size="11" font-style="italic" lengthAdjust="spacing" textLength="67.7241" x="72.0508" y="113.2104">&#171;exception&#187;</text><text fill="#000000" font-family="'Segoe UI'" font-size="11" lengthAdjust="spacing" textLength="161.8257" x="25" y="126.0151">RestaurantCreationException</text><line style="stroke:#94A3B8;stroke-width:0.5;" x1="23" x2="188.8257" y1="133.6094" y2="133.6094"/><line style="stroke:#94A3B8;stroke-width:0.5;" x1="23" x2="188.8257" y1="141.6094" y2="141.6094"/></g><!--class Exception--><g class="entity" data-qualified-name="Exception" data-source-line="28" id="ent0002"><rect fill="#F8FAFC" height="51.6094" rx="5" ry="5" style="stroke:#94A3B8;stroke-width:0.5;" width="65.873" x="1026" y="302"/><rect fill="#F1F5F9" height="35.6094" rx="5" ry="5" style="stroke:#F1F5F9;stroke-width:0.5;" width="65.873" x="1026" y="302"/><rect fill="#F1F5F9" height="5" style="stroke:#F1F5F9;stroke-width:0.5;" width="65.873" x="1026" y="332.6094"/><rect fill="none" height="51.6094" rx="5" ry="5" style="stroke:#94A3B8;stroke-width:0.5;" width="65.873" x="1026" y="302"/><text fill="#000000" font-family="Segoe UI" font-size="11" font-style="italic" lengthAdjust="spacing" textLength="63.873" x="1027" y="317.2104">&#171;java.lang&#187;</text><text fill="#000000" font-family="'Segoe UI'" font-size="11" lengthAdjust="spacing" textLength="54.3286" x="1031.7722" y="330.0151">Exception</text><line style="stroke:#94A3B8;stroke-width:0.5;" x1="1027" x2="1090.873" y1="337.6094" y2="337.6094"/><line style="stroke:#94A3B8;stroke-width:0.5;" x1="1027" x2="1090.873" y1="345.6094" y2="345.6094"/></g><g class="entity" data-qualified-name="N_INTF" data-source-line="59" id="ent0026"><path d="M2097,17.5 L2097,230.375 A5,5 0 0 0 2102,235.375 L2298.0288,235.375 A5,5 0 0 0 2303.0288,230.375 L2303.0288,22.5 L2293.0288,12.5 L2102,12.5 A5,5 0 0 0 2097,17.5" fill="#EFF6FF" style="stroke:#181818;stroke-width:0.5;"/><path d="M2293.0288,12.5 L2293.0288,20 A2.5,2.5 0 0 0 2295.5288,22.5 L2303.0288,22.5 L2293.0288,12.5" fill="#EFF6FF" style="stroke:#181818;stroke-width:1;"/><text fill="#000000" font-family="'Segoe UI'" font-size="11" font-weight="bold" lengthAdjust="spacing" textLength="159.3335" x="2103" y="27.7104">Interfacce RMI - &#171;throws&#187;</text><line style="stroke:#181818;stroke-width:1;" x1="2098" x2="2302.0288" y1="30.3047" y2="30.3047"/><text fill="#000000" font-family="'Segoe UI'" font-size="11" lengthAdjust="spacing" textLength="125.356" x="2103" y="44.5151">GestoreAutenticazioni:</text><text fill="#000000" font-family="'Segoe UI'" font-size="11" lengthAdjust="spacing" textLength="120.1836" x="2109.9932" y="57.3198">InvalidEMailException</text><text fill="#000000" font-family="'Segoe UI'" font-size="11" lengthAdjust="spacing" textLength="147.1572" x="2109.9932" y="70.1245">InvalidUsernameException</text><text fill="#000000" font-family="'Segoe UI'" font-size="11" lengthAdjust="spacing" textLength="178.0356" x="2109.9932" y="82.9292">InvalidSessionRequestException</text><text fill="#000000" font-family="'Segoe UI'" font-size="11" lengthAdjust="spacing" textLength="6.9932" x="2103" y="95.7339">&#160;&#160;</text><text fill="#000000" font-family="'Segoe UI'" font-size="11" lengthAdjust="spacing" textLength="80.5342" x="2103" y="108.5386">GestoreUtenti:</text><text fill="#000000" font-family="'Segoe UI'" font-size="11" lengthAdjust="spacing" textLength="147.1572" x="2109.9932" y="121.3433">InvalidUsernameException</text><text fill="#000000" font-family="'Segoe UI'" font-size="11" lengthAdjust="spacing" textLength="142.957" x="2109.9932" y="134.1479">InvalidPasswordException</text><text fill="#000000" font-family="'Segoe UI'" font-size="11" lengthAdjust="spacing" textLength="6.9932" x="2103" y="146.9526">&#160;&#160;</text><text fill="#000000" font-family="'Segoe UI'" font-size="11" lengthAdjust="spacing" textLength="106.8042" x="2103" y="159.7573">GestoreRecensioni:</text><text fill="#000000" font-family="'Segoe UI'" font-size="11" lengthAdjust="spacing" textLength="145.6318" x="2109.9932" y="172.562">ReviewNotExistsException</text><text fill="#000000" font-family="'Segoe UI'" font-size="11" lengthAdjust="spacing" textLength="169.2378" x="2109.9932" y="185.3667">AnswerAlreadyExistsException</text><text fill="#000000" font-family="'Segoe UI'" font-size="11" lengthAdjust="spacing" textLength="6.9932" x="2103" y="198.1714">&#160;&#160;</text><text fill="#000000" font-family="'Segoe UI'" font-size="11" lengthAdjust="spacing" textLength="100.1387" x="2103" y="210.9761">GestoreRistoranti:</text><text fill="#000000" font-family="'Segoe UI'" font-size="11" lengthAdjust="spacing" textLength="157.1152" x="2109.9932" y="223.7808">InvalidCoordinatesException</text></g><g class="entity" data-qualified-name="N_MDL" data-source-line="79" id="ent0027"><path d="M2338.5,11 L2338.5,236.6797 A5,5 0 0 0 2343.5,241.6797 L2518.6084,241.6797 A5,5 0 0 0 2523.6084,236.6797 L2523.6084,16 L2513.6084,6 L2343.5,6 A5,5 0 0 0 2338.5,11" fill="#FEFFDD" style="stroke:#181818;stroke-width:0.5;"/><path d="M2513.6084,6 L2513.6084,13.5 A2.5,2.5 0 0 0 2516.1084,16 L2523.6084,16 L2513.6084,6" fill="#FEFFDD" style="stroke:#181818;stroke-width:1;"/><text fill="#000000" font-family="'Segoe UI'" font-size="11" font-weight="bold" lengthAdjust="spacing" textLength="114.3667" x="2344.5" y="21.2104">Modelli - &#171;throws&#187;</text><line style="stroke:#181818;stroke-width:1;" x1="2339.5" x2="2522.6084" y1="23.8047" y2="23.8047"/><text fill="#000000" font-family="'Segoe UI'" font-size="11" lengthAdjust="spacing" textLength="40.8901" x="2344.5" y="38.0151">Utente:</text><text fill="#000000" font-family="'Segoe UI'" font-size="11" lengthAdjust="spacing" textLength="120.1836" x="2351.4932" y="50.8198">InvalidEMailException</text><text fill="#000000" font-family="'Segoe UI'" font-size="11" lengthAdjust="spacing" textLength="142.957" x="2351.4932" y="63.6245">InvalidPasswordException</text><text fill="#000000" font-family="'Segoe UI'" font-size="11" lengthAdjust="spacing" textLength="6.9932" x="2344.5" y="76.4292">&#160;&#160;</text><text fill="#000000" font-family="'Segoe UI'" font-size="11" lengthAdjust="spacing" textLength="67.1602" x="2344.5" y="89.2339">Recensione:</text><text fill="#000000" font-family="'Segoe UI'" font-size="11" lengthAdjust="spacing" textLength="126.5967" x="2351.4932" y="102.0386">InvalidRatingException</text><text fill="#000000" font-family="'Segoe UI'" font-size="11" lengthAdjust="spacing" textLength="125.6299" x="2351.4932" y="114.8433">TextTooLongException</text><text fill="#000000" font-family="'Segoe UI'" font-size="11" lengthAdjust="spacing" textLength="6.9932" x="2344.5" y="127.6479">&#160;&#160;</text><text fill="#000000" font-family="'Segoe UI'" font-size="11" lengthAdjust="spacing" textLength="50.6333" x="2344.5" y="140.4526">Risposta:</text><text fill="#000000" font-family="'Segoe UI'" font-size="11" lengthAdjust="spacing" textLength="125.6299" x="2351.4932" y="153.2573">TextTooLongException</text><text fill="#000000" font-family="'Segoe UI'" font-size="11" lengthAdjust="spacing" textLength="6.9932" x="2344.5" y="166.062">&#160;&#160;</text><text fill="#000000" font-family="'Segoe UI'" font-size="11" lengthAdjust="spacing" textLength="60.4946" x="2344.5" y="178.8667">Ristorante:</text><text fill="#000000" font-family="'Segoe UI'" font-size="11" lengthAdjust="spacing" textLength="157.1152" x="2351.4932" y="191.6714">InvalidCoordinatesException</text><text fill="#000000" font-family="'Segoe UI'" font-size="11" lengthAdjust="spacing" textLength="3.4966" x="2344.5" y="204.4761">&#160;</text><text fill="#000000" font-family="'Segoe UI'" font-size="11" lengthAdjust="spacing" textLength="99.1289" x="2344.5" y="217.2808">GestorePassword:</text><text fill="#000000" font-family="'Segoe UI'" font-size="11" lengthAdjust="spacing" textLength="142.957" x="2351.4932" y="230.0854">InvalidPasswordException</text></g><!--link InvalidEMailException to Exception--><g class="link" data-entity-1="ent0004" data-entity-2="ent0002" data-link-type="extension" data-source-line="45" id="lnk15"><path codeLine="45" d="M1999,150.34 C1999,209.14 1999,346 1999,346 C1999,346 1277.09,346 1110.18,346" fill="none" id="InvalidEMailException-to-Exception" style="stroke:#475569;stroke-width:1;"/><polygon fill="none" points="1092.18,346,1110.18,352,1110.18,340,1092.18,346" style="stroke:#475569;stroke-width:1;"/></g><!--link InvalidUsernameException to Exception--><g class="link" data-entity-1="ent0006" data-entity-2="ent0002" data-link-type="extension" data-source-line="46" id="lnk16"><path codeLine="46" d="M1640,150.25 C1640,205.35 1640,328 1640,328 C1640,328 1233.78,328 1110.32,328" fill="none" id="InvalidUsernameException-to-Exception" style="stroke:#475569;stroke-width:1;"/><polygon fill="none" points="1092.32,328,1110.32,334,1110.32,322,1092.32,328" style="stroke:#475569;stroke-width:1;"/></g><!--link InvalidPasswordException to Exception--><g class="link" data-entity-1="ent0005" data-entity-2="ent0002" data-link-type="extension" data-source-line="47" id="lnk17"><path codeLine="47" d="M1826,150.12 C1826,207 1826,337 1826,337 C1826,337 1258.08,337 1110.45,337" fill="none" id="InvalidPasswordException-to-Exception" style="stroke:#475569;stroke-width:1;"/><polygon fill="none" points="1092.45,337,1110.45,343,1110.45,331,1092.45,337" style="stroke:#475569;stroke-width:1;"/></g><!--link InvalidSessionRequestException to Exception--><g class="link" data-entity-1="ent0007" data-entity-2="ent0002" data-link-type="extension" data-source-line="48" id="lnk18"><path codeLine="48" d="M1436,150.03 C1436,203.34 1436,320 1436,320 C1436,320 1202.12,320 1110.13,320" fill="none" id="InvalidSessionRequestException-to-Exception" style="stroke:#475569;stroke-width:1;"/><polygon fill="none" points="1092.13,320,1110.13,326,1110.13,314,1092.13,320" style="stroke:#475569;stroke-width:1;"/></g><!--link InvalidRatingException to Exception--><g class="link" data-entity-1="ent0008" data-entity-2="ent0002" data-link-type="extension" data-source-line="49" id="lnk19"><path codeLine="49" d="M1242,150 C1242,201.38 1242,311 1242,311 C1242,311 1162.88,311 1110.14,311" fill="none" id="InvalidRatingException-to-Exception" style="stroke:#475569;stroke-width:1;"/><polygon fill="none" points="1092.14,311,1110.14,317,1110.14,305,1092.14,311" style="stroke:#475569;stroke-width:1;"/></g><!--link TextTooLongException to Exception--><g class="link" data-entity-1="ent0010" data-entity-2="ent0002" data-link-type="extension" data-source-line="50" id="lnk20"><path codeLine="50" d="M876,150 C876,201.38 876,311 876,311 C876,311 955.12,311 1007.86,311" fill="none" id="TextTooLongException-to-Exception" style="stroke:#475569;stroke-width:1;"/><polygon fill="none" points="1025.86,311,1007.86,305,1007.86,317,1025.86,311" style="stroke:#475569;stroke-width:1;"/></g><!--link InvalidCoordinatesException to Exception--><g class="link" data-entity-1="ent0009" data-entity-2="ent0002" data-link-type="extension" data-source-line="51" id="lnk21"><path codeLine="51" d="M1059,150.25 C1059,189.42 1059,244.74 1059,283.85" fill="none" id="InvalidCoordinatesException-to-Exception" style="stroke:#475569;stroke-width:1;"/><polygon fill="none" points="1059,301.85,1065,283.85,1053,283.85,1059,301.85" style="stroke:#475569;stroke-width:1;"/></g><!--link RestaurantCreationException to Exception--><g class="link" data-entity-1="ent0014" data-entity-2="ent0002" data-link-type="extension" data-source-line="52" id="lnk22"><path codeLine="52" d="M106,150.34 C106,209.14 106,346 106,346 C106,346 839.79,346 1007.92,346" fill="none" id="RestaurantCreationException-to-Exception" style="stroke:#475569;stroke-width:1;"/><polygon fill="none" points="1025.92,346,1007.92,340,1007.92,352,1025.92,346" style="stroke:#475569;stroke-width:1;"/></g><!--link ReviewNotExistsException to Exception--><g class="link" data-entity-1="ent0011" data-entity-2="ent0002" data-link-type="extension" data-source-line="53" id="lnk23"><path codeLine="53" d="M699,150.03 C699,203.34 699,320 699,320 C699,320 918.66,320 1007.78,320" fill="none" id="ReviewNotExistsException-to-Exception" style="stroke:#475569;stroke-width:1;"/><polygon fill="none" points="1025.78,320,1007.78,314,1007.78,326,1025.78,320" style="stroke:#475569;stroke-width:1;"/></g><!--link AnswerAlreadyExistsException to Exception--><g class="link" data-entity-1="ent0012" data-entity-2="ent0002" data-link-type="extension" data-source-line="54" id="lnk24"><path codeLine="54" d="M500,150.25 C500,205.35 500,328 500,328 C500,328 887.36,328 1007.71,328" fill="none" id="AnswerAlreadyExistsException-to-Exception" style="stroke:#475569;stroke-width:1;"/><polygon fill="none" points="1025.71,328,1007.71,322,1007.71,334,1025.71,328" style="stroke:#475569;stroke-width:1;"/></g><!--link AnswerNotExistsException to Exception--><g class="link" data-entity-1="ent0013" data-entity-2="ent0002" data-link-type="extension" data-source-line="55" id="lnk25"><path codeLine="55" d="M301,150.12 C301,207 301,337 301,337 C301,337 862.05,337 1007.94,337" fill="none" id="AnswerNotExistsException-to-Exception" style="stroke:#475569;stroke-width:1;"/><polygon fill="none" points="1025.94,337,1007.94,331,1007.94,343,1025.94,337" style="stroke:#475569;stroke-width:1;"/></g><?plantuml-src bLLRJnf157xVNt527qn8Q0fLguIGu7RNRXHg49EcBsQSFS3KPORE3AAs_UyzEwXizm9RNY3pVUVsdGlcNiWbqsm1CKxPAh6XadR45WYDQvmfX9keuPaoqhLuHcYtCo1Fc343QxMuMrcCk9AEyo53qMebOwwqH0tjB63cB5Ph8MSmPOd13988YVPfYQ2qdQiCCD1QhNsLA0tl3ZyT7HsVvi79NF1xYSP0Diqhnk_P3C-KZb5lAPqYnPLfdnA4EvN45RYJeUFDHOp0XUO9UdbDu9S7S4OsCrV_IyxXIJW8_HHncRoydXuEFfwTqEiNPFHQj6g7H-6fzwSGfDV3HuvBAvJizrt4WvAOGTW9Enii6pK83-dZtglY1a4dwAHnhLg2LII9jOecGcZaQL3FszGQl6O1lTuFzi3U9qpE-dtFEu1MgmM1xmVVew-Zg0iB5QyI1PCvNaWnnPQl5Wio8vQtt0WCZG880UVuJEv50vY1gulps-2Rx-hTn8_a0qj470oPIBAvPDJ9Sw_ezvhag4c_CQWbhKXD-ZLD5m5Z_Bb2OsiQZPcbPQX9zXKbBoIpQFPPJF3HJfIwLFkTZ_51u7gaA6LXx5xF0sdMg0U9flbv-X-JsX7691zRQIQjJq5IiCg2fhHy35gjt_tjX7gL3Itd5UUad5VLyN9sljKvLcd7oZsLpa6Ekal40hLY07AydPqlvUxtITU2pmNGxU220LU6UL9PJ5T-T1kD9c5wiyBZCAJfQ3OZQL5F6Lq660yZEXAzdftJ7u3fzvjDOgGd1U2SIbSQ1_Jd9AtWp5sHBW5GVZIoI654ic15lnrb6_V6XUtMzbgOjfo_CNAKPbj3LRiSkAj7URyY_MBvNCk6oqCPGzeNBzETuUTBrvIXYZ59H5Ktd1nOK_vABTv4-DTJRgSSLBP8Rsw4MIfQZ6uTvaOTtAzELjNN2hgxoteLz2y0?></g></svg>
