<?plantuml 1.2026.2?><svg xmlns="http://www.w3.org/2000/svg" xmlns:xlink="http://www.w3.org/1999/xlink" contentStyleType="text/css" data-diagram-type="CLASS" height="615px" preserveAspectRatio="none" style="width:2422px;height:615px;background:#FFFFFF;" version="1.1" viewBox="0 0 2422 615" width="2422px" zoomAndPan="magnify"><defs/><g><!--cluster PKG_INT--><g class="cluster" data-qualified-name="PKG_INT" data-source-line="36" id="ent0002"><path d="M787,281 L1018.6523,281 A7.5,7.5 0 0 1 1023.6523,286 L1030.6523,300.9688 L2410,300.9688 A5,5 0 0 1 2415,305.9688 L2415,603 A5,5 0 0 1 2410,608 L787,608 A5,5 0 0 1 782,603 L782,286 A5,5 0 0 1 787,281" fill="none" style="stroke:#000000;stroke-width:2;"/><line style="stroke:#000000;stroke-width:2;" x1="782" x2="1030.6523" y1="300.9688" y2="300.9688"/><text fill="#000000" font-family="'Segoe UI'" font-size="12" font-weight="bold" lengthAdjust="spacing" textLength="235.6523" x="786" y="294.1387">TheKnife-Common - Interfacce RMI</text></g><!--cluster PKG_IMPL--><g class="cluster" data-qualified-name="PKG_IMPL" data-source-line="82" id="ent0012"><path d="M11,6 L242.9043,6 A7.5,7.5 0 0 1 247.9043,11 L254.9043,25.9688 L753,25.9688 A5,5 0 0 1 758,30.9688 L758,433.5 A5,5 0 0 1 753,438.5 L11,438.5 A5,5 0 0 1 6,433.5 L6,11 A5,5 0 0 1 11,6" fill="none" style="stroke:#000000;stroke-width:2;"/><line style="stroke:#000000;stroke-width:2;" x1="6" x2="254.9043" y1="25.9688" y2="25.9688"/><text fill="#000000" font-family="'Segoe UI'" font-size="12" font-weight="bold" lengthAdjust="spacing" textLength="235.9043" x="10" y="19.1387">TheKnife-Server - Implementazioni</text></g><!--class Remote--><g class="entity" data-qualified-name="PKG_INT.Remote" data-source-line="37" id="ent0003"><rect fill="#F8FAFC" height="51.6094" rx="5" ry="5" style="stroke:#94A3B8;stroke-width:0.5;" width="60.416" x="1468" y="540"/><rect fill="#F1F5F9" height="35.6094" rx="5" ry="5" style="stroke:#F1F5F9;stroke-width:0.5;" width="60.416" x="1468" y="540"/><rect fill="#F1F5F9" height="5" style="stroke:#F1F5F9;stroke-width:0.5;" width="60.416" x="1468" y="570.6094"/><rect fill="none" height="51.6094" rx="5" ry="5" style="stroke:#94A3B8;stroke-width:0.5;" width="60.416" x="1468" y="540"/><text fill="#000000" font-family="Segoe UI" font-size="11" font-style="italic" lengthAdjust="spacing" textLength="58.416" x="1469" y="555.2104">&#171;java.rmi&#187;</text><text fill="#000000" font-family="'Segoe UI'" font-size="11" font-style="italic" lengthAdjust="spacing" textLength="42.9365" x="1476.7397" y="568.0151">Remote</text><line style="stroke:#94A3B8;stroke-width:0.5;" x1="1469" x2="1527.416" y1="575.6094" y2="575.6094"/><line style="stroke:#94A3B8;stroke-width:0.5;" x1="1469" x2="1527.416" y1="583.6094" y2="583.6094"/></g><!--class IAuth--><g class="entity" data-qualified-name="PKG_INT.IAuth" data-source-line="39" id="ent0004"><rect fill="#F8FAFC" height="102.8281" rx="5" ry="5" style="stroke:#94A3B8;stroke-width:0.5;" width="225.7427" x="1193" y="345"/><rect fill="#F1F5F9" height="35.6094" rx="5" ry="5" style="stroke:#F1F5F9;stroke-width:0.5;" width="225.7427" x="1193" y="345"/><rect fill="#F1F5F9" height="5" style="stroke:#F1F5F9;stroke-width:0.5;" width="225.7427" x="1193" y="375.6094"/><rect fill="none" height="102.8281" rx="5" ry="5" style="stroke:#94A3B8;stroke-width:0.5;" width="225.7427" x="1193" y="345"/><text fill="#000000" font-family="Segoe UI" font-size="11" font-style="italic" lengthAdjust="spacing" textLength="62.6377" x="1274.5525" y="360.2104">&#171;interface&#187;</text><text fill="#000000" font-family="'Segoe UI'" font-size="11" font-style="italic" lengthAdjust="spacing" textLength="121.6499" x="1245.0464" y="373.0151">GestoreAutenticazioni</text><line style="stroke:#94A3B8;stroke-width:0.5;" x1="1194" x2="1417.7427" y1="380.6094" y2="380.6094"/><line style="stroke:#94A3B8;stroke-width:0.5;" x1="1194" x2="1417.7427" y1="388.6094" y2="388.6094"/><text fill="#000000" font-family="'Segoe UI'" font-size="11" lengthAdjust="spacing" textLength="208.5918" x="1199" y="402.8198">+registraUtente(utente: Utente): void</text><text fill="#000000" font-family="'Segoe UI'" font-size="11" lengthAdjust="spacing" textLength="155.5684" x="1199" y="415.6245">+login(utente: Utente): void</text><text fill="#000000" font-family="'Segoe UI'" font-size="11" lengthAdjust="spacing" textLength="163.5552" x="1199" y="428.4292">+logout(utente: Utente): void</text><text fill="#000000" font-family="'Segoe UI'" font-size="11" lengthAdjust="spacing" textLength="213.7427" x="1199" y="441.2339">+eliminaAccount(utente: Utente): void</text></g><!--class IUtenti--><g class="entity" data-qualified-name="PKG_INT.IUtenti" data-source-line="46" id="ent0005"><rect fill="#F8FAFC" height="115.6328" rx="5" ry="5" style="stroke:#94A3B8;stroke-width:0.5;" width="360.353" x="798" y="338.5"/><rect fill="#F1F5F9" height="35.6094" rx="5" ry="5" style="stroke:#F1F5F9;stroke-width:0.5;" width="360.353" x="798" y="338.5"/><rect fill="#F1F5F9" height="5" style="stroke:#F1F5F9;stroke-width:0.5;" width="360.353" x="798" y="369.1094"/><rect fill="none" height="115.6328" rx="5" ry="5" style="stroke:#94A3B8;stroke-width:0.5;" width="360.353" x="798" y="338.5"/><text fill="#000000" font-family="Segoe UI" font-size="11" font-style="italic" lengthAdjust="spacing" textLength="62.6377" x="946.8577" y="353.7104">&#171;interface&#187;</text><text fill="#000000" font-family="'Segoe UI'" font-size="11" font-style="italic" lengthAdjust="spacing" textLength="76.8281" x="939.7625" y="366.5151">GestoreUtenti</text><line style="stroke:#94A3B8;stroke-width:0.5;" x1="799" x2="1157.353" y1="374.1094" y2="374.1094"/><line style="stroke:#94A3B8;stroke-width:0.5;" x1="799" x2="1157.353" y1="382.1094" y2="382.1094"/><text fill="#000000" font-family="'Segoe UI'" font-size="11" lengthAdjust="spacing" textLength="334.4526" x="804" y="396.3198">+modificaUsername(utente: Utente, username: String): void</text><text fill="#000000" font-family="'Segoe UI'" font-size="11" lengthAdjust="spacing" textLength="327.481" x="804" y="409.1245">+modificaPassword(utente: Utente, password: String): void</text><text fill="#000000" font-family="'Segoe UI'" font-size="11" lengthAdjust="spacing" textLength="326.686" x="804" y="421.9292">+visualizzaPreferiti(utente: Utente): ArrayList&lt;Ristorante&gt;</text><text fill="#000000" font-family="'Segoe UI'" font-size="11" lengthAdjust="spacing" textLength="348.353" x="804" y="434.7339">+aggiungiPreferito(utente: Utente, ristorante: Ristorante): void</text><text fill="#000000" font-family="'Segoe UI'" font-size="11" lengthAdjust="spacing" textLength="342.1709" x="804" y="447.5386">+rimuoviPreferito(utente: Utente, ristorante: Ristorante): void</text></g><!--class IRecensioni--><g class="entity" data-qualified-name="PKG_INT.IRecensioni" data-source-line="54" id="ent0006"><rect fill="#F8FAFC" height="102.8281" rx="5" ry="5" style="stroke:#94A3B8;stroke-width:0.5;" width="435.5054" x="1963" y="345"/><rect fill="#F1F5F9" height="35.6094" rx="5" ry="5" style="stroke:#F1F5F9;stroke-width:0.5;" width="435.5054" x="1963" y="345"/><rect fill="#F1F5F9" height="5" style="stroke:#F1F5F9;stroke-width:0.5;" width="435.5054" x="1963" y="375.6094"/><rect fill="none" height="102.8281" rx="5" ry="5" style="stroke:#94A3B8;stroke-width:0.5;" width="435.5054" x="1963" y="345"/><text fill="#000000" font-family="Segoe UI" font-size="11" font-style="italic" lengthAdjust="spacing" textLength="62.6377" x="2149.4338" y="360.2104">&#171;interface&#187;</text><text fill="#000000" font-family="'Segoe UI'" font-size="11" font-style="italic" lengthAdjust="spacing" textLength="103.0981" x="2129.2036" y="373.0151">GestoreRecensioni</text><line style="stroke:#94A3B8;stroke-width:0.5;" x1="1964" x2="2397.5054" y1="380.6094" y2="380.6094"/><line style="stroke:#94A3B8;stroke-width:0.5;" x1="1964" x2="2397.5054" y1="388.6094" y2="388.6094"/><text fill="#000000" font-family="'Segoe UI'" font-size="11" lengthAdjust="spacing" textLength="349.583" x="1969" y="402.8198">+visualizzaRecensioni(utente: Utente): ArrayList&lt;Recensione&gt;</text><text fill="#000000" font-family="'Segoe UI'" font-size="11" lengthAdjust="spacing" textLength="271.6484" x="1969" y="415.6245">+scriviRecensione(recensione: Recensione): void</text><text fill="#000000" font-family="'Segoe UI'" font-size="11" lengthAdjust="spacing" textLength="283.0889" x="1969" y="428.4292">+eliminaRecensione(recensione: Recensione): void</text><text fill="#000000" font-family="'Segoe UI'" font-size="11" lengthAdjust="spacing" textLength="423.5054" x="1969" y="441.2339">+scriviRispostaRecensione(recensione: Recensione, risposta: Risposta): void</text></g><!--class IRistoranti--><g class="entity" data-qualified-name="PKG_INT.IRistoranti" data-source-line="61" id="ent0007"><rect fill="#F8FAFC" height="166.8516" rx="5" ry="5" style="stroke:#94A3B8;stroke-width:0.5;" width="473.4629" x="1454.5" y="313"/><rect fill="#F1F5F9" height="35.6094" rx="5" ry="5" style="stroke:#F1F5F9;stroke-width:0.5;" width="473.4629" x="1454.5" y="313"/><rect fill="#F1F5F9" height="5" style="stroke:#F1F5F9;stroke-width:0.5;" width="473.4629" x="1454.5" y="343.6094"/><rect fill="none" height="166.8516" rx="5" ry="5" style="stroke:#94A3B8;stroke-width:0.5;" width="473.4629" x="1454.5" y="313"/><text fill="#000000" font-family="Segoe UI" font-size="11" font-style="italic" lengthAdjust="spacing" textLength="62.6377" x="1659.9126" y="328.2104">&#171;interface&#187;</text><text fill="#000000" font-family="'Segoe UI'" font-size="11" font-style="italic" lengthAdjust="spacing" textLength="96.4326" x="1643.0151" y="341.0151">GestoreRistoranti</text><line style="stroke:#94A3B8;stroke-width:0.5;" x1="1455.5" x2="1926.9629" y1="348.6094" y2="348.6094"/><line style="stroke:#94A3B8;stroke-width:0.5;" x1="1455.5" x2="1926.9629" y1="356.6094" y2="356.6094"/><text fill="#000000" font-family="'Segoe UI'" font-size="11" lengthAdjust="spacing" textLength="188.2246" x="1460.5" y="370.8198">+numeroRistorantiRegistrati(): int</text><text fill="#000000" font-family="'Segoe UI'" font-size="11" lengthAdjust="spacing" textLength="244.0303" x="1460.5" y="383.6245">+apriRistorante(ristorante: Ristorante): void</text><text fill="#000000" font-family="'Segoe UI'" font-size="11" lengthAdjust="spacing" textLength="316.2554" x="1460.5" y="396.4292">+calcolaValutazioneMedia(ristorante: Ristorante): double</text><text fill="#000000" font-family="'Segoe UI'" font-size="11" lengthAdjust="spacing" textLength="418.4243" x="1460.5" y="409.2339">+ricercaRistorantiPerNome(nomeRistorante: String): ArrayList&lt;Ristorante&gt;</text><text fill="#000000" font-family="'Segoe UI'" font-size="11" lengthAdjust="spacing" textLength="455.3291" x="1460.5" y="422.0386">+ricercaRistorantiPerLocalita(citta: String, nazione: String): ArrayList&lt;Ristorante&gt;</text><text fill="#000000" font-family="'Segoe UI'" font-size="11" lengthAdjust="spacing" textLength="411.6997" x="1460.5" y="434.8433">+ricercaRistorantiPerFiltri(filtri: ArrayList&lt;String&gt;): ArrayList&lt;Ristorante&gt;</text><text fill="#000000" font-family="'Segoe UI'" font-size="11" lengthAdjust="spacing" textLength="336.252" x="1460.5" y="447.6479">+visualizzaRistoranti(utente: Utente): ArrayList&lt;Ristorante&gt;</text><text fill="#000000" font-family="'Segoe UI'" font-size="11" lengthAdjust="spacing" textLength="461.4629" x="1460.5" y="460.4526">+visualizzaRecensioniPerRistorante(ristorante: Ristorante): ArrayList&lt;Recensione&gt;</text><text fill="#000000" font-family="'Segoe UI'" font-size="11" lengthAdjust="spacing" textLength="249.9761" x="1460.5" y="473.2573">+ristoranteInfo(ristorante: Ristorante): String</text></g><!--class UnicastRemoteObject--><g class="entity" data-qualified-name="PKG_IMPL.UnicastRemoteObject" data-source-line="83" id="ent0013"><rect fill="#F8FAFC" height="51.6094" rx="5" ry="5" style="stroke:#94A3B8;stroke-width:0.5;" width="125.6733" x="312" y="370.5"/><rect fill="#F1F5F9" height="35.6094" rx="5" ry="5" style="stroke:#F1F5F9;stroke-width:0.5;" width="125.6733" x="312" y="370.5"/><rect fill="#F1F5F9" height="5" style="stroke:#F1F5F9;stroke-width:0.5;" width="125.6733" x="312" y="401.1094"/><rect fill="none" height="51.6094" rx="5" ry="5" style="stroke:#94A3B8;stroke-width:0.5;" width="125.6733" x="312" y="370.5"/><text fill="#000000" font-family="Segoe UI" font-size="11" font-style="italic" lengthAdjust="spacing" textLength="96.7334" x="326.47" y="385.7104">&#171;java.rmi.server&#187;</text><text fill="#000000" font-family="'Segoe UI'" font-size="11" font-style="italic" lengthAdjust="spacing" textLength="119.6733" x="315" y="398.5151">UnicastRemoteObject</text><line style="stroke:#94A3B8;stroke-width:0.5;" x1="313" x2="436.6733" y1="406.1094" y2="406.1094"/><line style="stroke:#94A3B8;stroke-width:0.5;" x1="313" x2="436.6733" y1="414.1094" y2="414.1094"/></g><!--class TheKnifeServer--><g class="entity" data-qualified-name="PKG_IMPL.TheKnifeServer" data-source-line="85" id="ent0014"><rect fill="#F8FAFC" height="51.6094" rx="5" ry="5" style="stroke:#94A3B8;stroke-width:0.5;" width="160.355" x="295" y="38"/><rect fill="#F1F5F9" height="22.8047" rx="5" ry="5" style="stroke:#F1F5F9;stroke-width:0.5;" width="160.355" x="295" y="38"/><rect fill="#F1F5F9" height="5" style="stroke:#F1F5F9;stroke-width:0.5;" width="160.355" x="295" y="55.8047"/><rect fill="none" height="51.6094" rx="5" ry="5" style="stroke:#94A3B8;stroke-width:0.5;" width="160.355" x="295" y="38"/><text fill="#000000" font-family="'Segoe UI'" font-size="11" lengthAdjust="spacing" textLength="84.4121" x="332.9714" y="53.2104">TheKnifeServer</text><line style="stroke:#94A3B8;stroke-width:0.5;" x1="296" x2="454.355" y1="60.8047" y2="60.8047"/><line style="stroke:#94A3B8;stroke-width:0.5;" x1="296" x2="454.355" y1="68.8047" y2="68.8047"/><text fill="#000000" font-family="'Segoe UI'" font-size="11" lengthAdjust="spacing" text-decoration="underline" textLength="148.355" x="301" y="83.0151">+main(args: String[]): void</text></g><!--class GestoreAutenticazioniImpl--><g class="entity" data-qualified-name="PKG_IMPL.GestoreAutenticazioniImpl" data-source-line="89" id="ent0015"><rect fill="#F8FAFC" height="102.8281" rx="5" ry="5" style="stroke:#94A3B8;stroke-width:0.5;" width="175.4478" x="188.5" y="150"/><rect fill="#F1F5F9" height="22.8047" rx="5" ry="5" style="stroke:#F1F5F9;stroke-width:0.5;" width="175.4478" x="188.5" y="150"/><rect fill="#F1F5F9" height="5" style="stroke:#F1F5F9;stroke-width:0.5;" width="175.4478" x="188.5" y="167.8047"/><rect fill="none" height="102.8281" rx="5" ry="5" style="stroke:#94A3B8;stroke-width:0.5;" width="175.4478" x="188.5" y="150"/><text fill="#000000" font-family="'Segoe UI'" font-size="11" lengthAdjust="spacing" textLength="145.6479" x="203.3999" y="165.2104">GestoreAutenticazioniImpl</text><line style="stroke:#94A3B8;stroke-width:0.5;" x1="189.5" x2="362.9478" y1="172.8047" y2="172.8047"/><text fill="#000000" font-family="'Segoe UI'" font-size="11" lengthAdjust="spacing" textLength="78.0151" x="194.5" y="187.0151">-url_db: String</text><text fill="#000000" font-family="'Segoe UI'" font-size="11" lengthAdjust="spacing" textLength="99.5693" x="194.5" y="199.8198">-utente_db: String</text><text fill="#000000" font-family="'Segoe UI'" font-size="11" lengthAdjust="spacing" textLength="115.8813" x="194.5" y="212.6245">-password_db: String</text><text fill="#000000" font-family="'Segoe UI'" font-size="11" lengthAdjust="spacing" textLength="156.7554" x="194.5" y="225.4292">-sessioniAttive: Set&lt;String&gt;</text><line style="stroke:#94A3B8;stroke-width:0.5;" x1="189.5" x2="362.9478" y1="232.0234" y2="232.0234"/><text fill="#000000" font-family="'Segoe UI'" font-size="11" lengthAdjust="spacing" textLength="163.4478" x="194.5" y="246.2339">+GestoreAutenticazioniImpl()</text></g><!--class GestoreUtentiImpl--><g class="entity" data-qualified-name="PKG_IMPL.GestoreUtentiImpl" data-source-line="97" id="ent0016"><rect fill="#F8FAFC" height="90.0234" rx="5" ry="5" style="stroke:#94A3B8;stroke-width:0.5;" width="130.626" x="22.5" y="156.5"/><rect fill="#F1F5F9" height="22.8047" rx="5" ry="5" style="stroke:#F1F5F9;stroke-width:0.5;" width="130.626" x="22.5" y="156.5"/><rect fill="#F1F5F9" height="5" style="stroke:#F1F5F9;stroke-width:0.5;" width="130.626" x="22.5" y="174.3047"/><rect fill="none" height="90.0234" rx="5" ry="5" style="stroke:#94A3B8;stroke-width:0.5;" width="130.626" x="22.5" y="156.5"/><text fill="#000000" font-family="'Segoe UI'" font-size="11" lengthAdjust="spacing" textLength="100.8262" x="37.3999" y="171.7104">GestoreUtentiImpl</text><line style="stroke:#94A3B8;stroke-width:0.5;" x1="23.5" x2="152.126" y1="179.3047" y2="179.3047"/><text fill="#000000" font-family="'Segoe UI'" font-size="11" lengthAdjust="spacing" textLength="78.0151" x="28.5" y="193.5151">-url_db: String</text><text fill="#000000" font-family="'Segoe UI'" font-size="11" lengthAdjust="spacing" textLength="99.5693" x="28.5" y="206.3198">-utente_db: String</text><text fill="#000000" font-family="'Segoe UI'" font-size="11" lengthAdjust="spacing" textLength="115.8813" x="28.5" y="219.1245">-password_db: String</text><line style="stroke:#94A3B8;stroke-width:0.5;" x1="23.5" x2="152.126" y1="225.7188" y2="225.7188"/><text fill="#000000" font-family="'Segoe UI'" font-size="11" lengthAdjust="spacing" textLength="118.626" x="28.5" y="239.9292">+GestoreUtentiImpl()</text></g><!--class GestoreRecensioniImpl--><g class="entity" data-qualified-name="PKG_IMPL.GestoreRecensioniImpl" data-source-line="104" id="ent0017"><rect fill="#F8FAFC" height="51.6094" rx="5" ry="5" style="stroke:#94A3B8;stroke-width:0.5;" width="156.896" x="584.5" y="175.5"/><rect fill="#F1F5F9" height="22.8047" rx="5" ry="5" style="stroke:#F1F5F9;stroke-width:0.5;" width="156.896" x="584.5" y="175.5"/><rect fill="#F1F5F9" height="5" style="stroke:#F1F5F9;stroke-width:0.5;" width="156.896" x="584.5" y="193.3047"/><rect fill="none" height="51.6094" rx="5" ry="5" style="stroke:#94A3B8;stroke-width:0.5;" width="156.896" x="584.5" y="175.5"/><text fill="#000000" font-family="'Segoe UI'" font-size="11" lengthAdjust="spacing" textLength="127.0962" x="599.3999" y="190.7104">GestoreRecensioniImpl</text><line style="stroke:#94A3B8;stroke-width:0.5;" x1="585.5" x2="740.396" y1="198.3047" y2="198.3047"/><line style="stroke:#94A3B8;stroke-width:0.5;" x1="585.5" x2="740.396" y1="206.3047" y2="206.3047"/><text fill="#000000" font-family="'Segoe UI'" font-size="11" lengthAdjust="spacing" textLength="144.896" x="590.5" y="220.5151">+GestoreRecensioniImpl()</text></g><!--class GestoreRistorantiImpl--><g class="entity" data-qualified-name="PKG_IMPL.GestoreRistorantiImpl" data-source-line="108" id="ent0018"><rect fill="#F8FAFC" height="51.6094" rx="5" ry="5" style="stroke:#94A3B8;stroke-width:0.5;" width="150.2305" x="399" y="175.5"/><rect fill="#F1F5F9" height="22.8047" rx="5" ry="5" style="stroke:#F1F5F9;stroke-width:0.5;" width="150.2305" x="399" y="175.5"/><rect fill="#F1F5F9" height="5" style="stroke:#F1F5F9;stroke-width:0.5;" width="150.2305" x="399" y="193.3047"/><rect fill="none" height="51.6094" rx="5" ry="5" style="stroke:#94A3B8;stroke-width:0.5;" width="150.2305" x="399" y="175.5"/><text fill="#000000" font-family="'Segoe UI'" font-size="11" lengthAdjust="spacing" textLength="120.4307" x="413.8999" y="190.7104">GestoreRistorantiImpl</text><line style="stroke:#94A3B8;stroke-width:0.5;" x1="400" x2="548.2305" y1="198.3047" y2="198.3047"/><line style="stroke:#94A3B8;stroke-width:0.5;" x1="400" x2="548.2305" y1="206.3047" y2="206.3047"/><text fill="#000000" font-family="'Segoe UI'" font-size="11" lengthAdjust="spacing" textLength="138.2305" x="405" y="220.5151">+GestoreRistorantiImpl()</text></g><!--link IAuth to Remote--><g class="link" data-entity-1="ent0004" data-entity-2="ent0003" data-link-type="extension" data-source-line="74" id="lnk8"><path codeLine="74" d="M1306,448.04 C1306,495.31 1306,558 1306,558 C1306,558 1396,558 1450,558" fill="none" id="IAuth-to-Remote" style="stroke:#475569;stroke-width:1;"/><polygon fill="none" points="1468,558,1450,552,1450,564,1468,558" style="stroke:#475569;stroke-width:1;"/></g><!--link IUtenti to Remote--><g class="link" data-entity-1="ent0005" data-entity-2="ent0003" data-link-type="extension" data-source-line="75" id="lnk9"><path codeLine="75" d="M978,454.95 C978,507.01 978,575 978,575 C978,575 1338.81,575 1449.79,575" fill="none" id="IUtenti-to-Remote" style="stroke:#475569;stroke-width:1;"/><polygon fill="none" points="1467.79,575,1449.79,569,1449.79,581,1467.79,575" style="stroke:#475569;stroke-width:1;"/></g><!--link IRecensioni to Remote--><g class="link" data-entity-1="ent0006" data-entity-2="ent0003" data-link-type="extension" data-source-line="76" id="lnk10"><path codeLine="76" d="M2181,448.28 C2181,498.12 2181,566 2181,566 C2181,566 1678.41,566 1546.23,566" fill="none" id="IRecensioni-to-Remote" style="stroke:#475569;stroke-width:1;"/><polygon fill="none" points="1528.23,566,1546.23,572,1546.23,560,1528.23,566" style="stroke:#475569;stroke-width:1;"/></g><!--link IRistoranti to Remote--><g class="link" data-entity-1="ent0007" data-entity-2="ent0003" data-link-type="extension" data-source-line="77" id="lnk11"><path codeLine="77" d="M1498,480.26 C1498,501.94 1498,505.71 1498,521.89" fill="none" id="IRistoranti-to-Remote" style="stroke:#475569;stroke-width:1;"/><polygon fill="none" points="1498,539.89,1504,521.89,1492,521.89,1498,539.89" style="stroke:#475569;stroke-width:1;"/></g><!--link GestoreAutenticazioniImpl to UnicastRemoteObject--><g class="link" data-entity-1="ent0015" data-entity-2="ent0013" data-link-type="extension" data-source-line="113" id="lnk19"><path codeLine="113" d="M337.75,253.24 C337.75,290.93 337.75,322.41 337.75,352.26" fill="none" id="GestoreAutenticazioniImpl-to-UnicastRemoteObject" style="stroke:#475569;stroke-width:1;"/><polygon fill="none" points="337.75,370.26,343.75,352.26,331.75,352.26,337.75,370.26" style="stroke:#475569;stroke-width:1;"/></g><!--link GestoreUtentiImpl to UnicastRemoteObject--><g class="link" data-entity-1="ent0016" data-entity-2="ent0013" data-link-type="extension" data-source-line="114" id="lnk20"><path codeLine="114" d="M66.17,246.84 C66.17,304.6 66.17,397 66.17,397 C66.17,397 203.4,397 293.76,397" fill="none" id="GestoreUtentiImpl-to-UnicastRemoteObject" style="stroke:#475569;stroke-width:1;"/><polygon fill="none" points="311.76,397,293.76,391,293.76,403,311.76,397" style="stroke:#475569;stroke-width:1;"/></g><!--link GestoreRecensioniImpl to UnicastRemoteObject--><g class="link" data-entity-1="ent0017" data-entity-2="ent0013" data-link-type="extension" data-source-line="115" id="lnk21"><path codeLine="115" d="M663,227.87 C663,281.23 663,397 663,397 C663,397 540.98,397 456.2,397" fill="none" id="GestoreRecensioniImpl-to-UnicastRemoteObject" style="stroke:#475569;stroke-width:1;"/><polygon fill="none" points="438.2,397,456.2,403,456.2,391,438.2,397" style="stroke:#475569;stroke-width:1;"/></g><!--link GestoreRistorantiImpl to UnicastRemoteObject--><g class="link" data-entity-1="ent0018" data-entity-2="ent0013" data-link-type="extension" data-source-line="116" id="lnk22"><path codeLine="116" d="M418.5,227.8 C418.5,265.12 418.5,315.04 418.5,352.31" fill="none" id="GestoreRistorantiImpl-to-UnicastRemoteObject" style="stroke:#475569;stroke-width:1;"/><polygon fill="none" points="418.5,370.31,424.5,352.31,412.5,352.31,418.5,370.31" style="stroke:#475569;stroke-width:1;"/></g><!--link TheKnifeServer to GestoreAutenticazioniImpl--><g class="link" data-entity-1="ent0014" data-entity-2="ent0015" data-link-type="dependency" data-source-line="119" id="lnk23"><path codeLine="119" d="M329.25,90.19 C329.25,107.02 329.25,123.46 329.25,143.78" fill="none" id="TheKnifeServer-to-GestoreAutenticazioniImpl" style="stroke:#475569;stroke-width:1;stroke-dasharray:7,7;"/><polygon fill="#475569" points="329.25,149.78,333.25,140.78,329.25,144.78,325.25,140.78,329.25,149.78" style="stroke:#475569;stroke-width:1;"/><text fill="#000000" font-family="'Segoe UI'" font-size="11" lengthAdjust="spacing" textLength="72.4346" x="256.25" y="117.1904">&#171;instantiate&#187;</text></g><!--link TheKnifeServer to GestoreUtentiImpl--><g class="link" data-entity-1="ent0014" data-entity-2="ent0016" data-link-type="dependency" data-source-line="120" id="lnk24"><path codeLine="120" d="M294.67,64 C209.77,64 88,64 88,64 C88,64 88,110.38 88,150.48" fill="none" id="TheKnifeServer-to-GestoreUtentiImpl" style="stroke:#475569;stroke-width:1;stroke-dasharray:7,7;"/><polygon fill="#475569" points="88,156.48,92,147.48,88,151.48,84,147.48,88,156.48" style="stroke:#475569;stroke-width:1;"/><text fill="#000000" font-family="'Segoe UI'" font-size="11" lengthAdjust="spacing" textLength="72.4346" x="72.1" y="61.2104">&#171;instantiate&#187;</text></g><!--link TheKnifeServer to GestoreRecensioniImpl--><g class="link" data-entity-1="ent0014" data-entity-2="ent0017" data-link-type="dependency" data-source-line="121" id="lnk25"><path codeLine="121" d="M455.22,64 C540.44,64 663,64 663,64 C663,64 663,129.42 663,169.31" fill="none" id="TheKnifeServer-to-GestoreRecensioniImpl" style="stroke:#475569;stroke-width:1;stroke-dasharray:7,7;"/><polygon fill="#475569" points="663,175.31,667,166.31,663,170.31,659,166.31,663,175.31" style="stroke:#475569;stroke-width:1;"/><text fill="#000000" font-family="'Segoe UI'" font-size="11" lengthAdjust="spacing" textLength="72.4346" x="541.77" y="61.2104">&#171;instantiate&#187;</text></g><!--link TheKnifeServer to GestoreRistorantiImpl--><g class="link" data-entity-1="ent0014" data-entity-2="ent0018" data-link-type="dependency" data-source-line="122" id="lnk26"><path codeLine="122" d="M427,90.19 C427,114.65 427,144.98 427,169.41" fill="none" id="TheKnifeServer-to-GestoreRistorantiImpl" style="stroke:#475569;stroke-width:1;stroke-dasharray:7,7;"/><polygon fill="#475569" points="427,175.41,431,166.41,427,170.41,423,166.41,427,175.41" style="stroke:#475569;stroke-width:1;"/><text fill="#000000" font-family="'Segoe UI'" font-size="11" lengthAdjust="spacing" textLength="72.4346" x="354" y="130.0104">&#171;instantiate&#187;</text></g><!--link GestoreAutenticazioniImpl to IAuth--><g class="link" data-entity-1="ent0015" data-entity-2="ent0004" data-link-type="extension" data-source-line="127" id="lnk27"><path codeLine="127" d="M363.82,241 C612.9,241 1306,241 1306,241 C1306,241 1306,281.49 1306,326.72" fill="none" id="GestoreAutenticazioniImpl-to-IAuth" style="stroke:#475569;stroke-width:1;stroke-dasharray:7,7;"/><polygon fill="none" points="1306,344.72,1312,326.72,1300,326.72,1306,344.72" style="stroke:#475569;stroke-width:1;"/></g><!--link GestoreUtentiImpl to IUtenti--><g class="link" data-entity-1="ent0016" data-entity-2="ent0005" data-link-type="extension" data-source-line="128" id="lnk28"><path codeLine="128" d="M109.83,246.72 C109.83,292 109.83,355 109.83,355 C109.83,355 525.52,355 779.85,355" fill="none" id="GestoreUtentiImpl-to-IUtenti" style="stroke:#475569;stroke-width:1;stroke-dasharray:7,7;"/><polygon fill="none" points="797.85,355,779.85,349,779.85,361,797.85,355" style="stroke:#475569;stroke-width:1;"/></g><!--link GestoreRecensioniImpl to IRecensioni--><g class="link" data-entity-1="ent0017" data-entity-2="ent0006" data-link-type="extension" data-source-line="129" id="lnk29"><path codeLine="129" d="M741.68,202 C1052.9,202 2181,202 2181,202 C2181,202 2181,269.27 2181,326.89" fill="none" id="GestoreRecensioniImpl-to-IRecensioni" style="stroke:#475569;stroke-width:1;stroke-dasharray:7,7;"/><polygon fill="none" points="2181,344.89,2187,326.89,2175,326.89,2181,344.89" style="stroke:#475569;stroke-width:1;"/></g><!--link GestoreRistorantiImpl to IRistoranti--><g class="link" data-entity-1="ent0018" data-entity-2="ent0007" data-link-type="extension" data-source-line="130" id="lnk30"><path codeLine="130" d="M493.5,227.6 C493.5,264.11 493.5,326 493.5,326 C493.5,326 1087.42,326 1436.41,326" fill="none" id="GestoreRistorantiImpl-to-IRistoranti" style="stroke:#475569;stroke-width:1;stroke-dasharray:7,7;"/><polygon fill="none" points="1454.41,326,1436.41,320,1436.41,332,1454.41,326" style="stroke:#475569;stroke-width:1;"/></g><?plantuml-src hLVTKjj65BxtKvoX5zX3x2aaJi73UCOuLk84YCT0BjhfPDRIiRr1slNihao1yYvzbxvOZrQ_bYK3RIy0QS_vpi-tvqVeMovMJB40F9opq3UE5EQI1GXxLxYG23VZlOQkKhhY3mY7XmMXwpEj1yOeFWiDZbqfhCxF1HKbG-6vKWbKS5WKw2Npv1qN2vWpNsD1udE1vdw589LPoe9We9Iy6qfVAlZftI_TxlkJil1woTrRWLf3CSm9Ss_P0i-ayb3bAaVRAZPDS-yZpAJlrSWj3KUD9VSGNAvS7njbJk2n0N16c8NDFudPENO6pZ2Is4YIqvDtWxTdntJw2HcTRgCEdQvpqdWgEk72e9ep5wiTVJWR3PnHsH5vENBUrpiQVHYT46h34PjfevXhQXBgEcyTf-pd-AmxV9aV8rTW975jZAHIumfTmwLeDFPXV7azcZg3uN04dmVV1Z2z6FSWa5xeIxXUuXV1vzWUoY28r5VnxS1UIG9j62TC4LLaOW-OXicNZz_9l4qf9tAAWJG8fwS_s9frLC3x_KSAiQYozn6raGe7LEp2S9SzKB3SsXpJsPB0cNA_R-q378321OzOl8bGsBHWx47yskh1Md8lKVNbWeldD6HeTggWpmCksC1rYVHwrIVwgKpFAYPfnSyrYT5ry3dHSADH2PeW9LTl84m4FRYY6I4Mct6cy0arp1qLq1PybGYguMkkG-RpXmSsKJX7nGtVpfMc0hi_9_fFfpnAZj5nFp705WiUYWLFuN8h09LXUf3ZDyDGF0Zb-jyQiLTGUnDJT57elCZozveRoJd9LNUIacfbf6XNyJNFpvigUwJmi-VAYdibAd75zKfgyppOCcbLBO_sgLZDrGocXASCPkyr38emG2LpjMdIl5HSv8mGQV6i5Czli_cIId6PxqgVVMD-QEpem0lqEAl7UZASqN99wyn5vR8yiWcgIqbD9-ZNj60YwvLTjLzbxLnIXDomfijDH79iw0s8EDZ_ODdXFa6RS_kd28yjzfynMQZgpEhhMhsgBoYkbrpWhcR9GMCnb_KsuZJJAjq74nfQDVILmVFjHFMAmfD2ffke-PaMKRIqMeI9zqkx_MS_4KTdoN0kdHQ6H5cI5tzHyXJjstQRTkN5v7nqCRgy7lmw_dfPiM-lKAtfEuvqgtPkAeLniF8neDWA2z8kNR9l6otxgeW_bcu4RG5jud2-pdxGLq1X3tUqjMlNiPsJCIXrctXD-_UHfWAjvYS866rIfXOwfV-ttqlJ8hPJkTEZ31AJRGYL_zsR5MxH7jgospvFTzQsHDCtPsIRlfVvEkecpEe_YRqsb6QhCkRu_l__M0-s7TH4aDTQ8Og3QccTYQmeAqriI7CJ-p1ID3mDKnpDttz14_-8saUteWAflr9RzXNbbeCAd3wlN4h_1O3DP7S0R8v3XV7iXMQqhQYq2SbehFLRz8-P3t5da6gf6JgT_WuIUb0ojjD0WP3N0Klal1AyILGLE9vRcxC68resvoeDK6ZoL4kt6lN4T3fq7NRIDhQJZuNnGQCwnLWbFsnK9vEePOV_0000?></g></svg>
