<?plantuml 1.2026.2?><svg xmlns="http://www.w3.org/2000/svg" xmlns:xlink="http://www.w3.org/1999/xlink" contentStyleType="text/css" data-diagram-type="CLASS" height="947px" preserveAspectRatio="none" style="width:1364px;height:947px;background:#FFFFFF;" version="1.1" viewBox="0 0 1364 947" width="1364px" zoomAndPan="magnify"><defs/><g><!--cluster PKG_MODEL--><g class="cluster" data-qualified-name="PKG_MODEL" data-source-line="24" id="ent0002"><path d="M11,6 L193.5977,6 A7.5,7.5 0 0 1 198.5977,11 L205.5977,25.9688 L1166,25.9688 A5,5 0 0 1 1171,30.9688 L1171,935 A5,5 0 0 1 1166,940 L11,940 A5,5 0 0 1 6,935 L6,11 A5,5 0 0 1 11,6" fill="none" style="stroke:#000000;stroke-width:2;"/><line style="stroke:#000000;stroke-width:2;" x1="6" x2="205.5977" y1="25.9688" y2="25.9688"/><text fill="#000000" font-family="'Segoe UI'" font-size="12" font-weight="bold" lengthAdjust="spacing" textLength="186.5977" x="10" y="19.1387">TheKnife-Common - Modelli</text></g><!--class Serializable--><g class="entity" data-qualified-name="PKG_MODEL.Serializable" data-source-line="25" id="ent0003"><rect fill="#F8FAFC" height="51.6094" rx="5" ry="5" style="stroke:#94A3B8;stroke-width:0.5;" width="69.5024" x="355" y="872"/><rect fill="#F1F5F9" height="35.6094" rx="5" ry="5" style="stroke:#F1F5F9;stroke-width:0.5;" width="69.5024" x="355" y="872"/><rect fill="#F1F5F9" height="5" style="stroke:#F1F5F9;stroke-width:0.5;" width="69.5024" x="355" y="902.6094"/><rect fill="none" height="51.6094" rx="5" ry="5" style="stroke:#94A3B8;stroke-width:0.5;" width="69.5024" x="355" y="872"/><text fill="#000000" font-family="Segoe UI" font-size="11" font-style="italic" lengthAdjust="spacing" textLength="49.9082" x="364.7971" y="887.2104">&#171;java.io&#187;</text><text fill="#000000" font-family="'Segoe UI'" font-size="11" font-style="italic" lengthAdjust="spacing" textLength="63.5024" x="358" y="900.0151">Serializable</text><line style="stroke:#94A3B8;stroke-width:0.5;" x1="356" x2="423.5024" y1="907.6094" y2="907.6094"/><line style="stroke:#94A3B8;stroke-width:0.5;" x1="356" x2="423.5024" y1="915.6094" y2="915.6094"/></g><!--class Recensione--><g class="entity" data-qualified-name="PKG_MODEL.Recensione" data-source-line="27" id="ent0004"><rect fill="#F8FAFC" height="166.8516" rx="5" ry="5" style="stroke:#94A3B8;stroke-width:0.5;" width="546.832" x="238.5" y="233"/><rect fill="#F1F5F9" height="35.6094" rx="5" ry="5" style="stroke:#F1F5F9;stroke-width:0.5;" width="546.832" x="238.5" y="233"/><rect fill="#F1F5F9" height="5" style="stroke:#F1F5F9;stroke-width:0.5;" width="546.832" x="238.5" y="263.6094"/><rect fill="none" height="166.8516" rx="5" ry="5" style="stroke:#94A3B8;stroke-width:0.5;" width="546.832" x="238.5" y="233"/><text fill="#000000" font-family="Segoe UI" font-size="11" font-style="italic" lengthAdjust="spacing" textLength="77.0806" x="473.3757" y="248.2104">&#171;Serializable&#187;</text><text fill="#000000" font-family="'Segoe UI'" font-size="11" lengthAdjust="spacing" textLength="63.4541" x="480.189" y="261.0151">Recensione</text><line style="stroke:#94A3B8;stroke-width:0.5;" x1="239.5" x2="784.332" y1="268.6094" y2="268.6094"/><text fill="#000000" font-family="'Segoe UI'" font-size="11" lengthAdjust="spacing" text-decoration="underline" textLength="229.7378" x="244.5" y="282.8198">-LUNGHEZZA_MASSIMA_TESTO: int = 200</text><text fill="#000000" font-family="'Segoe UI'" font-size="11" lengthAdjust="spacing" textLength="35.5513" x="244.5" y="295.6245">-id: int</text><text fill="#000000" font-family="'Segoe UI'" font-size="11" lengthAdjust="spacing" textLength="89.144" x="244.5" y="308.4292">-valutazione: int</text><text fill="#000000" font-family="'Segoe UI'" font-size="11" lengthAdjust="spacing" textLength="71.8545" x="244.5" y="321.2339">-testo: String</text><text fill="#000000" font-family="'Segoe UI'" font-size="11" lengthAdjust="spacing" textLength="146.9961" x="244.5" y="334.0386">-ultimaModifica: LocalDate</text><text fill="#000000" font-family="'Segoe UI'" font-size="11" lengthAdjust="spacing" textLength="101.9058" x="244.5" y="346.8433">-risposta: Risposta</text><line style="stroke:#94A3B8;stroke-width:0.5;" x1="239.5" x2="784.332" y1="353.4375" y2="353.4375"/><text fill="#000000" font-family="'Segoe UI'" font-size="11" lengthAdjust="spacing" textLength="241.3071" x="244.5" y="367.6479">+Recensione(valutazione: int, testo: String)</text><text fill="#000000" font-family="'Segoe UI'" font-size="11" lengthAdjust="spacing" textLength="534.832" x="244.5" y="380.4526">+Recensione(id: int, valutazione: int, testo: String, ultimaModifica: LocalDate, risposta: Risposta)</text><text fill="#000000" font-family="'Segoe UI'" font-size="11" lengthAdjust="spacing" textLength="101.7017" x="244.5" y="393.2573">+toString(): String</text></g><!--class Utente--><g class="entity" data-qualified-name="PKG_MODEL.Utente" data-source-line="39" id="ent0005"><rect fill="#F8FAFC" height="205.2656" rx="5" ry="5" style="stroke:#94A3B8;stroke-width:0.5;" width="143.8013" x="59" y="214"/><rect fill="#F1F5F9" height="35.6094" rx="5" ry="5" style="stroke:#F1F5F9;stroke-width:0.5;" width="143.8013" x="59" y="214"/><rect fill="#F1F5F9" height="5" style="stroke:#F1F5F9;stroke-width:0.5;" width="143.8013" x="59" y="244.6094"/><rect fill="none" height="205.2656" rx="5" ry="5" style="stroke:#94A3B8;stroke-width:0.5;" width="143.8013" x="59" y="214"/><text fill="#000000" font-family="Segoe UI" font-size="11" font-style="italic" lengthAdjust="spacing" textLength="77.0806" x="92.3604" y="229.2104">&#171;Serializable&#187;</text><text fill="#000000" font-family="'Segoe UI'" font-size="11" lengthAdjust="spacing" textLength="37.1841" x="112.3086" y="242.0151">Utente</text><line style="stroke:#94A3B8;stroke-width:0.5;" x1="60" x2="201.8013" y1="249.6094" y2="249.6094"/><text fill="#000000" font-family="'Segoe UI'" font-size="11" lengthAdjust="spacing" textLength="35.5513" x="65" y="263.8198">-id: int</text><text fill="#000000" font-family="'Segoe UI'" font-size="11" lengthAdjust="spacing" textLength="75.1846" x="65" y="276.6245">-nome: String</text><text fill="#000000" font-family="'Segoe UI'" font-size="11" lengthAdjust="spacing" textLength="94.9448" x="65" y="289.4292">-cognome: String</text><text fill="#000000" font-family="'Segoe UI'" font-size="11" lengthAdjust="spacing" textLength="99.188" x="65" y="302.2339">-username: String</text><text fill="#000000" font-family="'Segoe UI'" font-size="11" lengthAdjust="spacing" textLength="73.1113" x="65" y="315.0386">-eMail: String</text><text fill="#000000" font-family="'Segoe UI'" font-size="11" lengthAdjust="spacing" textLength="96.4165" x="65" y="327.8433">-password: String</text><text fill="#000000" font-family="'Segoe UI'" font-size="11" lengthAdjust="spacing" textLength="131.8013" x="65" y="340.6479">-dataNascita: LocalDate</text><text fill="#000000" font-family="'Segoe UI'" font-size="11" lengthAdjust="spacing" textLength="68.4707" x="65" y="353.4526">-citta: String</text><text fill="#000000" font-family="'Segoe UI'" font-size="11" lengthAdjust="spacing" textLength="87.0117" x="65" y="366.2573">-nazione: String</text><text fill="#000000" font-family="'Segoe UI'" font-size="11" lengthAdjust="spacing" textLength="72.0103" x="65" y="379.062">-ruolo: String</text><line style="stroke:#94A3B8;stroke-width:0.5;" x1="60" x2="201.8013" y1="385.6563" y2="385.6563"/><text fill="#000000" font-family="'Segoe UI'" font-size="11" lengthAdjust="spacing" textLength="65.4736" x="65" y="399.8667">+Utente(...)</text><text fill="#000000" font-family="'Segoe UI'" font-size="11" lengthAdjust="spacing" textLength="65.4736" x="65" y="412.6714">+Utente(...)</text></g><!--class Ristorante--><g class="entity" data-qualified-name="PKG_MODEL.Ristorante" data-source-line="54" id="ent0006"><rect fill="#F8FAFC" height="333.3125" rx="5" ry="5" style="stroke:#94A3B8;stroke-width:0.5;" width="307.3242" x="848.5" y="479"/><rect fill="#F1F5F9" height="35.6094" rx="5" ry="5" style="stroke:#F1F5F9;stroke-width:0.5;" width="307.3242" x="848.5" y="479"/><rect fill="#F1F5F9" height="5" style="stroke:#F1F5F9;stroke-width:0.5;" width="307.3242" x="848.5" y="509.6094"/><rect fill="none" height="333.3125" rx="5" ry="5" style="stroke:#94A3B8;stroke-width:0.5;" width="307.3242" x="848.5" y="479"/><text fill="#000000" font-family="Segoe UI" font-size="11" font-style="italic" lengthAdjust="spacing" textLength="77.0806" x="963.6218" y="494.2104">&#171;Serializable&#187;</text><text fill="#000000" font-family="'Segoe UI'" font-size="11" lengthAdjust="spacing" textLength="56.7886" x="973.7678" y="507.0151">Ristorante</text><line style="stroke:#94A3B8;stroke-width:0.5;" x1="849.5" x2="1154.8242" y1="514.6094" y2="514.6094"/><text fill="#000000" font-family="'Segoe UI'" font-size="11" lengthAdjust="spacing" textLength="35.5513" x="854.5" y="528.8198">-id: int</text><text fill="#000000" font-family="'Segoe UI'" font-size="11" lengthAdjust="spacing" textLength="90.4385" x="854.5" y="541.6245">-proprietario: int</text><text fill="#000000" font-family="'Segoe UI'" font-size="11" lengthAdjust="spacing" textLength="75.1846" x="854.5" y="554.4292">-nome: String</text><text fill="#000000" font-family="'Segoe UI'" font-size="11" lengthAdjust="spacing" textLength="89.9229" x="854.5" y="567.2339">-indirizzo: String</text><text fill="#000000" font-family="'Segoe UI'" font-size="11" lengthAdjust="spacing" textLength="68.4707" x="854.5" y="580.0386">-citta: String</text><text fill="#000000" font-family="'Segoe UI'" font-size="11" lengthAdjust="spacing" textLength="87.0117" x="854.5" y="592.8433">-nazione: String</text><text fill="#000000" font-family="'Segoe UI'" font-size="11" lengthAdjust="spacing" textLength="112.3901" x="854.5" y="605.6479">-fasciaPrezzo: String</text><text fill="#000000" font-family="'Segoe UI'" font-size="11" lengthAdjust="spacing" textLength="100.8906" x="854.5" y="618.4526">-latitudine: double</text><text fill="#000000" font-family="'Segoe UI'" font-size="11" lengthAdjust="spacing" textLength="110.521" x="854.5" y="631.2573">-longitudine: double</text><text fill="#000000" font-family="'Segoe UI'" font-size="11" lengthAdjust="spacing" textLength="145.8789" x="854.5" y="644.062">-recapitoTelefonico: String</text><text fill="#000000" font-family="'Segoe UI'" font-size="11" lengthAdjust="spacing" textLength="126.8921" x="854.5" y="656.8667">-paginaMichelin: String</text><text fill="#000000" font-family="'Segoe UI'" font-size="11" lengthAdjust="spacing" textLength="106.1006" x="854.5" y="669.6714">-paginaWeb: String</text><text fill="#000000" font-family="'Segoe UI'" font-size="11" lengthAdjust="spacing" textLength="128.3906" x="854.5" y="682.4761">-riconoscimento: String</text><text fill="#000000" font-family="'Segoe UI'" font-size="11" lengthAdjust="spacing" textLength="118.3682" x="854.5" y="695.2808">-stellaGreen: boolean</text><text fill="#000000" font-family="'Segoe UI'" font-size="11" lengthAdjust="spacing" textLength="106.4067" x="854.5" y="708.0854">-descrizione: String</text><text fill="#000000" font-family="'Segoe UI'" font-size="11" lengthAdjust="spacing" textLength="162.959" x="854.5" y="720.8901">-prenotazioneOnline: boolean</text><text fill="#000000" font-family="'Segoe UI'" font-size="11" lengthAdjust="spacing" textLength="99.3223" x="854.5" y="733.6948">-delivery: boolean</text><text fill="#000000" font-family="'Segoe UI'" font-size="11" lengthAdjust="spacing" textLength="146.8994" x="854.5" y="746.4995">-servizi: ArrayList&lt;String&gt;</text><text fill="#000000" font-family="'Segoe UI'" font-size="11" lengthAdjust="spacing" textLength="166.3589" x="854.5" y="759.3042">-tipiCucina: ArrayList&lt;String&gt;</text><line style="stroke:#94A3B8;stroke-width:0.5;" x1="849.5" x2="1154.8242" y1="765.8984" y2="765.8984"/><text fill="#000000" font-family="'Segoe UI'" font-size="11" lengthAdjust="spacing" textLength="256.749" x="854.5" y="780.1089">+Ristorante(proprietario: int, nome: String, ...)</text><text fill="#000000" font-family="'Segoe UI'" font-size="11" lengthAdjust="spacing" textLength="295.3242" x="854.5" y="792.9136">+Ristorante(id: int, proprietario: int, nome: String, ...)</text><text fill="#000000" font-family="'Segoe UI'" font-size="11" lengthAdjust="spacing" textLength="101.7017" x="854.5" y="805.7183">+toString(): String</text></g><!--class Risposta--><g class="entity" data-qualified-name="PKG_MODEL.Risposta" data-source-line="79" id="ent0007"><rect fill="#F8FAFC" height="141.2422" rx="5" ry="5" style="stroke:#94A3B8;stroke-width:0.5;" width="277.1548" x="536.5" y="575"/><rect fill="#F1F5F9" height="35.6094" rx="5" ry="5" style="stroke:#F1F5F9;stroke-width:0.5;" width="277.1548" x="536.5" y="575"/><rect fill="#F1F5F9" height="5" style="stroke:#F1F5F9;stroke-width:0.5;" width="277.1548" x="536.5" y="605.6094"/><rect fill="none" height="141.2422" rx="5" ry="5" style="stroke:#94A3B8;stroke-width:0.5;" width="277.1548" x="536.5" y="575"/><text fill="#000000" font-family="Segoe UI" font-size="11" font-style="italic" lengthAdjust="spacing" textLength="77.0806" x="636.5371" y="590.2104">&#171;Serializable&#187;</text><text fill="#000000" font-family="'Segoe UI'" font-size="11" lengthAdjust="spacing" textLength="46.9272" x="651.6138" y="603.0151">Risposta</text><line style="stroke:#94A3B8;stroke-width:0.5;" x1="537.5" x2="812.6548" y1="610.6094" y2="610.6094"/><text fill="#000000" font-family="'Segoe UI'" font-size="11" lengthAdjust="spacing" text-decoration="underline" textLength="229.7378" x="542.5" y="624.8198">-LUNGHEZZA_MASSIMA_TESTO: int = 200</text><text fill="#000000" font-family="'Segoe UI'" font-size="11" lengthAdjust="spacing" textLength="35.5513" x="542.5" y="637.6245">-id: int</text><text fill="#000000" font-family="'Segoe UI'" font-size="11" lengthAdjust="spacing" textLength="71.8545" x="542.5" y="650.4292">-testo: String</text><text fill="#000000" font-family="'Segoe UI'" font-size="11" lengthAdjust="spacing" textLength="90.9434" x="542.5" y="663.2339">-data: LocalDate</text><line style="stroke:#94A3B8;stroke-width:0.5;" x1="537.5" x2="812.6548" y1="669.8281" y2="669.8281"/><text fill="#000000" font-family="'Segoe UI'" font-size="11" lengthAdjust="spacing" textLength="132.6123" x="542.5" y="684.0386">+Risposta(testo: String)</text><text fill="#000000" font-family="'Segoe UI'" font-size="11" lengthAdjust="spacing" textLength="265.1548" x="542.5" y="696.8433">+Risposta(id: int, testo: String, data: LocalDate)</text><text fill="#000000" font-family="'Segoe UI'" font-size="11" lengthAdjust="spacing" textLength="101.7017" x="542.5" y="709.6479">+toString(): String</text></g><!--class Descrittore--><g class="entity" data-qualified-name="PKG_MODEL.Descrittore" data-source-line="89" id="ent0008"><rect fill="#F8FAFC" height="115.6328" rx="5" ry="5" style="stroke:#94A3B8;stroke-width:0.5;" width="210.8594" x="406.5" y="38"/><rect fill="#F1F5F9" height="35.6094" rx="5" ry="5" style="stroke:#F1F5F9;stroke-width:0.5;" width="210.8594" x="406.5" y="38"/><rect fill="#F1F5F9" height="5" style="stroke:#F1F5F9;stroke-width:0.5;" width="210.8594" x="406.5" y="68.6094"/><rect fill="none" height="115.6328" rx="5" ry="5" style="stroke:#94A3B8;stroke-width:0.5;" width="210.8594" x="406.5" y="38"/><text fill="#000000" font-family="Segoe UI" font-size="11" font-style="italic" lengthAdjust="spacing" textLength="77.0806" x="473.3894" y="53.2104">&#171;Serializable&#187;</text><text fill="#000000" font-family="'Segoe UI'" font-size="11" lengthAdjust="spacing" textLength="61.2412" x="481.3091" y="66.0151">Descrittore</text><line style="stroke:#94A3B8;stroke-width:0.5;" x1="407.5" x2="616.3594" y1="73.6094" y2="73.6094"/><text fill="#000000" font-family="'Segoe UI'" font-size="11" lengthAdjust="spacing" textLength="116.9072" x="412.5" y="87.8198">-utenteAttivo: Utente</text><text fill="#000000" font-family="'Segoe UI'" font-size="11" lengthAdjust="spacing" textLength="185.5176" x="412.5" y="100.6245">-ristoranteSelezionato: Ristorante</text><text fill="#000000" font-family="'Segoe UI'" font-size="11" lengthAdjust="spacing" textLength="198.8594" x="412.5" y="113.4292">-recensioneSelezionata: Recensione</text><text fill="#000000" font-family="'Segoe UI'" font-size="11" lengthAdjust="spacing" textLength="165.8057" x="412.5" y="126.2339">-rispostaSelezionata: Risposta</text><line style="stroke:#94A3B8;stroke-width:0.5;" x1="407.5" x2="616.3594" y1="132.8281" y2="132.8281"/><text fill="#000000" font-family="'Segoe UI'" font-size="11" lengthAdjust="spacing" textLength="191.979" x="412.5" y="147.0386">+Descrittore(utenteAttivo: Utente)</text></g><!--class GestorePassword--><g class="entity" data-qualified-name="PKG_MODEL.GestorePassword" data-source-line="97" id="ent0009"><rect fill="#F8FAFC" height="192.4609" rx="5" ry="5" style="stroke:#94A3B8;stroke-width:0.5;" width="366.519" x="96.5" y="549.5"/><rect fill="#F1F5F9" height="35.6094" rx="5" ry="5" style="stroke:#F1F5F9;stroke-width:0.5;" width="366.519" x="96.5" y="549.5"/><rect fill="#F1F5F9" height="5" style="stroke:#F1F5F9;stroke-width:0.5;" width="366.519" x="96.5" y="580.1094"/><rect fill="none" height="192.4609" rx="5" ry="5" style="stroke:#94A3B8;stroke-width:0.5;" width="366.519" x="96.5" y="549.5"/><text fill="#000000" font-family="Segoe UI" font-size="11" font-style="italic" lengthAdjust="spacing" textLength="77.0806" x="241.2192" y="564.7104">&#171;Serializable&#187;</text><text fill="#000000" font-family="'Segoe UI'" font-size="11" lengthAdjust="spacing" textLength="95.4229" x="232.0481" y="577.5151">GestorePassword</text><line style="stroke:#94A3B8;stroke-width:0.5;" x1="97.5" x2="462.019" y1="585.1094" y2="585.1094"/><text fill="#000000" font-family="'Segoe UI'" font-size="11" lengthAdjust="spacing" text-decoration="underline" textLength="149.6279" x="102.5" y="599.3198">-ITERATIONS: int = 600000</text><text fill="#000000" font-family="'Segoe UI'" font-size="11" lengthAdjust="spacing" text-decoration="underline" textLength="133.9229" x="102.5" y="612.1245">-KEY_LENGTH: int = 256</text><text fill="#000000" font-family="'Segoe UI'" font-size="11" lengthAdjust="spacing" text-decoration="underline" textLength="145.0303" x="102.5" y="624.9292">-RANDOM: SecureRandom</text><line style="stroke:#94A3B8;stroke-width:0.5;" x1="97.5" x2="462.019" y1="631.5234" y2="631.5234"/><text fill="#000000" font-family="'Segoe UI'" font-size="11" lengthAdjust="spacing" text-decoration="underline" textLength="234.3516" x="102.5" y="645.7339">-containsDigits(password: String): boolean</text><text fill="#000000" font-family="'Segoe UI'" font-size="11" lengthAdjust="spacing" text-decoration="underline" textLength="274.0225" x="102.5" y="658.5386">-containsSpecialChars(password: String): boolean</text><text fill="#000000" font-family="'Segoe UI'" font-size="11" lengthAdjust="spacing" text-decoration="underline" textLength="265.0742" x="102.5" y="671.3433">-containsRepetitions(password: String): boolean</text><text fill="#000000" font-family="'Segoe UI'" font-size="11" lengthAdjust="spacing" textLength="3.4966" x="102.5" y="684.1479">&#160;</text><text fill="#000000" font-family="'Segoe UI'" font-size="11" lengthAdjust="spacing" text-decoration="underline" textLength="205.5947" x="102.5" y="696.9526">+validate(password: String): boolean</text><text fill="#000000" font-family="'Segoe UI'" font-size="11" lengthAdjust="spacing" text-decoration="underline" textLength="202.5654" x="102.5" y="709.7573">+securePasswordGenerator(): String</text><text fill="#000000" font-family="'Segoe UI'" font-size="11" lengthAdjust="spacing" text-decoration="underline" textLength="228.7603" x="102.5" y="722.562">+hashPassword(password: String): String</text><text fill="#000000" font-family="'Segoe UI'" font-size="11" lengthAdjust="spacing" text-decoration="underline" textLength="354.519" x="102.5" y="735.3667">+verifyPassword(password: String, storedHash: String): boolean</text></g><g class="entity" data-qualified-name="GMN22" data-source-line="134" id="ent0023"><path d="M1190.5,620 L1190.5,671.2188 A5,5 0 0 0 1195.5,676.2188 L1352.1479,676.2188 A5,5 0 0 0 1357.1479,671.2188 L1357.1479,625 L1347.1479,615 L1195.5,615 A5,5 0 0 0 1190.5,620" fill="#FEFFDD" style="stroke:#181818;stroke-width:0.5;"/><path d="M1347.1479,615 L1347.1479,622.5 A2.5,2.5 0 0 0 1349.6479,625 L1357.1479,625 L1347.1479,615" fill="#FEFFDD" style="stroke:#181818;stroke-width:1;"/><text fill="#000000" font-family="'Segoe UI'" font-size="11" lengthAdjust="spacing" textLength="87.146" x="1196.5" y="630.2104">&#171;use&#187; anche da</text><text fill="#000000" font-family="'Segoe UI'" font-size="11" lengthAdjust="spacing" textLength="145.6479" x="1196.5" y="643.0151">GestoreAutenticazioniImpl</text><text fill="#000000" font-family="'Segoe UI'" font-size="11" lengthAdjust="spacing" textLength="111.0903" x="1196.5" y="655.8198">e GestoreUtentiImpl</text><text fill="#000000" font-family="'Segoe UI'" font-size="11" lengthAdjust="spacing" textLength="143.1987" x="1196.5" y="668.6245">(TheKnife-Server, Diag. 1)</text></g><!--link Utente to Serializable--><g class="link" data-entity-1="ent0005" data-entity-2="ent0003" data-link-type="extension" data-source-line="113" id="lnk10"><path codeLine="113" d="M77.75,419.12 C77.75,586.06 77.75,898 77.75,898 C77.75,898 255.13,898 336.79,898" fill="none" id="Utente-to-Serializable" style="stroke:#475569;stroke-width:1;stroke-dasharray:7,7;"/><polygon fill="none" points="354.79,898,336.79,892,336.79,904,354.79,898" style="stroke:#475569;stroke-width:1;"/></g><!--link Recensione to Serializable--><g class="link" data-entity-1="ent0004" data-entity-2="ent0003" data-link-type="extension" data-source-line="114" id="lnk11"><path codeLine="114" d="M500,400.08 C500,558.1 500,885 500,885 C500,885 475.3,885 443.11,885" fill="none" id="Recensione-to-Serializable" style="stroke:#475569;stroke-width:1;stroke-dasharray:7,7;"/><polygon fill="none" points="425.11,885,443.11,891,443.11,879,425.11,885" style="stroke:#475569;stroke-width:1;"/></g><!--link Risposta to Serializable--><g class="link" data-entity-1="ent0007" data-entity-2="ent0003" data-link-type="extension" data-source-line="115" id="lnk12"><path codeLine="115" d="M675,716.17 C675,790.87 675,898 675,898 C675,898 519.48,898 443.23,898" fill="none" id="Risposta-to-Serializable" style="stroke:#475569;stroke-width:1;stroke-dasharray:7,7;"/><polygon fill="none" points="425.23,898,443.23,904,443.23,892,425.23,898" style="stroke:#475569;stroke-width:1;"/></g><!--link Ristorante to Serializable--><g class="link" data-entity-1="ent0006" data-entity-2="ent0003" data-link-type="extension" data-source-line="116" id="lnk13"><path codeLine="116" d="M848.18,777 C670.31,777 401.67,777 401.67,777 C401.67,777 401.67,818.16 401.67,853.74" fill="none" id="Ristorante-to-Serializable" style="stroke:#475569;stroke-width:1;stroke-dasharray:7,7;"/><polygon fill="none" points="401.67,871.74,407.67,853.74,395.67,853.74,401.67,871.74" style="stroke:#475569;stroke-width:1;"/></g><!--link Descrittore to Serializable--><g class="link" data-entity-1="ent0008" data-entity-2="ent0003" data-link-type="extension" data-source-line="117" id="lnk14"><path codeLine="117" d="M617.78,96 C710.64,96 831,96 831,96 C831,96 831,911 831,911 C831,911 547.99,911 443.34,911" fill="none" id="Descrittore-to-Serializable" style="stroke:#475569;stroke-width:1;stroke-dasharray:7,7;"/><polygon fill="none" points="425.34,911,443.34,917,443.34,905,425.34,911" style="stroke:#475569;stroke-width:1;"/></g><!--link GestorePassword to Serializable--><g class="link" data-entity-1="ent0009" data-entity-2="ent0003" data-link-type="extension" data-source-line="118" id="lnk15"><path codeLine="118" d="M378.33,741.68 C378.33,788.51 378.33,823.2 378.33,853.88" fill="none" id="GestorePassword-to-Serializable" style="stroke:#475569;stroke-width:1;stroke-dasharray:7,7;"/><polygon fill="none" points="378.33,871.88,384.33,853.88,372.33,853.88,378.33,871.88" style="stroke:#475569;stroke-width:1;"/></g><!--link Utente to GestorePassword--><g class="link" data-entity-1="ent0005" data-entity-2="ent0009" data-link-type="dependency" data-source-line="122" id="lnk16"><path codeLine="122" d="M149.75,419.24 C149.75,460.82 149.75,502.55 149.75,543.42" fill="none" id="Utente-to-GestorePassword" style="stroke:#475569;stroke-width:1;stroke-dasharray:7,7;"/><polygon fill="#475569" points="149.75,549.42,153.75,540.42,149.75,544.42,145.75,540.42,149.75,549.42" style="stroke:#475569;stroke-width:1;"/><text fill="#000000" font-family="'Segoe UI'" font-size="11" lengthAdjust="spacing" textLength="32.9302" x="116.75" y="481.5404">&#171;use&#187;</text></g><!--reverse link Recensione to Risposta--><g class="link" data-entity-1="ent0004" data-entity-2="ent0007" data-link-type="composition" data-source-line="124" id="lnk17"><path codeLine="124" d="M661,412.37 C661,466.34 661,523.7 661,574.86" fill="none" id="Recensione-backto-Risposta" style="stroke:#475569;stroke-width:1;"/><polygon fill="#475569" points="661,400.37,657,406.37,661,412.37,665,406.37,661,400.37" style="stroke:#475569;stroke-width:1;"/><text fill="#000000" font-family="'Segoe UI'" font-size="11" lengthAdjust="spacing" textLength="43.8066" x="617" y="484.8304">risposta</text><text fill="#000000" font-family="'Segoe UI'" font-size="11" lengthAdjust="spacing" textLength="6.9985" x="667.1389" y="418.0623">1</text><text fill="#000000" font-family="'Segoe UI'" font-size="11" lengthAdjust="spacing" textLength="20.9902" x="638.2733" y="564.2415">0..1</text></g><!--reverse link Descrittore to Utente--><g class="link" data-entity-1="ent0008" data-entity-2="ent0005" data-link-type="aggregation" data-source-line="125" id="lnk18"><path codeLine="125" d="M476.83,166.01 C476.83,199.88 476.83,224 476.83,224 C476.83,224 304.43,224 203.08,224" fill="none" id="Descrittore-backto-Utente" style="stroke:#475569;stroke-width:1;"/><polygon fill="none" points="476.83,154.01,472.83,160.01,476.83,166.01,480.83,160.01,476.83,154.01" style="stroke:#475569;stroke-width:1;"/><text fill="#000000" font-family="'Segoe UI'" font-size="11" lengthAdjust="spacing" textLength="68.5513" x="305.95" y="221.2104">utenteAttivo</text><text fill="#000000" font-family="'Segoe UI'" font-size="11" lengthAdjust="spacing" textLength="6.9985" x="466.4825" y="171.6894">1</text><text fill="#000000" font-family="'Segoe UI'" font-size="11" lengthAdjust="spacing" textLength="6.9985" x="210.8844" y="212.0804">1</text></g><!--reverse link Descrittore to Ristorante--><g class="link" data-entity-1="ent0008" data-entity-2="ent0006" data-link-type="aggregation" data-source-line="126" id="lnk19"><path codeLine="126" d="M629.72,67 C773.77,67 1002,67 1002,67 C1002,67 1002,308.05 1002,478.95" fill="none" id="Descrittore-backto-Ristorante" style="stroke:#475569;stroke-width:1;"/><polygon fill="none" points="617.72,67,623.72,71,629.72,67,623.72,63,617.72,67" style="stroke:#475569;stroke-width:1;"/><text fill="#000000" font-family="'Segoe UI'" font-size="11" lengthAdjust="spacing" textLength="117.5571" x="884" y="78.0404">ristoranteSelezionato</text><text fill="#000000" font-family="'Segoe UI'" font-size="11" lengthAdjust="spacing" textLength="6.9985" x="625.4044" y="62.7907">1</text><text fill="#000000" font-family="'Segoe UI'" font-size="11" lengthAdjust="spacing" textLength="20.9902" x="981.5015" y="468.276">0..1</text></g><!--reverse link Descrittore to Recensione--><g class="link" data-entity-1="ent0008" data-entity-2="ent0004" data-link-type="aggregation" data-source-line="127" id="lnk20"><path codeLine="127" d="M547.17,166.22 C547.17,190.21 547.17,206.46 547.17,232.61" fill="none" id="Descrittore-backto-Recensione" style="stroke:#475569;stroke-width:1;"/><polygon fill="none" points="547.17,154.22,543.17,160.22,547.17,166.22,551.17,160.22,547.17,154.22" style="stroke:#475569;stroke-width:1;"/><text fill="#000000" font-family="'Segoe UI'" font-size="11" lengthAdjust="spacing" textLength="124.2334" x="422.17" y="190.6304">recensioneSelezionata</text><text fill="#000000" font-family="'Segoe UI'" font-size="11" lengthAdjust="spacing" textLength="6.9985" x="544.9555" y="171.9236">1</text><text fill="#000000" font-family="'Segoe UI'" font-size="11" lengthAdjust="spacing" textLength="20.9902" x="529.6242" y="222.2982">0..1</text></g><!--reverse link Descrittore to Risposta--><g class="link" data-entity-1="ent0008" data-entity-2="ent0007" data-link-type="aggregation" data-source-line="128" id="lnk21"><path codeLine="128" d="M629.83,125 C711.81,125 799.5,125 799.5,125 C799.5,125 799.5,432.45 799.5,574.76" fill="none" id="Descrittore-backto-Risposta" style="stroke:#475569;stroke-width:1;"/><polygon fill="none" points="617.83,125,623.83,129,629.83,125,623.83,121,617.83,125" style="stroke:#475569;stroke-width:1;"/><text fill="#000000" font-family="'Segoe UI'" font-size="11" lengthAdjust="spacing" textLength="107.7065" x="800.5" y="256.2604">rispostaSelezionata</text><text fill="#000000" font-family="'Segoe UI'" font-size="11" lengthAdjust="spacing" textLength="6.9985" x="625.5222" y="124.8688">1</text><text fill="#000000" font-family="'Segoe UI'" font-size="11" lengthAdjust="spacing" textLength="20.9902" x="792.0691" y="564.6078">0..1</text></g><!--link GestorePassword to GMN22--><g class="link" data-entity-1="ent0009" data-entity-2="ent0023" data-link-type="association" data-source-line="134" id="lnk24"><path d="M444.25,741.74 C444.25,791.52 444.25,842 444.25,842 C444.25,842 1274,842 1274,842 C1274,842 1274,731.47 1274,676.2" fill="none" id="GestorePassword-GMN22" style="stroke:#475569;stroke-width:1;stroke-dasharray:7,7;"/></g><?plantuml-src jLTjJ-D64FxkNx5AFrnIGaJeGG-BHWhaXOWae2Iewdr1Ypr9fZYxrdeD0if_xzZOZhrsBbob8YJ2p3opCy-yx2PuHE5pnJVCXIKFFJsGGa_v1bXj3Yi9x6vKiu8gepc-0cktSqh7uq7GrLhXGwXXv4WHsnpbJ9GCXUj89K2nTbuHhBahdr6is99x0UGq7WhGBpumgVHQvXHTfUJpfVIaOhzy_VtavFJCL2xMw3mA20AM3_EMEuzy1HTIkQ2s9iTbapXD_U81Uv2UkqCVqt1ihT45vg1oFB1CJjYRnTW5OLPn_adCWs-3xk0oqiIH9DAphztVBhwHz0euISkezk1aS6QzMvQMFjEIGjDQKcLGWQDH2ilwmWuF3zdafjSVZqSssqWtz2HRhE5Qu18EB-Lc8qLaOrd-HoAiLjAoYNJ1yx36UC1khuVtiRyu4nGQr98xmEQWa7luoX-8e_Fpl_aJRw7iTDZREzdHxqVwCt1011HRP9J7H9PanUYujq1pZSux6zzDXrVzxz-xzvFkV3wQTEyN_VdYnewEPN-muwEZ185kB4l-U-9UgFbhT4XUh27GqcPpQagnIcJKmBZXb1ykqU4s6qk7Upsk8T4h37n9uTXibdoA5GUvFEhcSStYIOqo8WctoVP0cxlZQrQ4bfwavGUytiXbMwZ2dGOgtEuA5FaKSWC6RuvSLKZ309JW9J5CE7g6pASmdgdP3R7BDP_om45TKGoIHk82GAJi5QGgf0afo0wIdEkjLgjHAIcsAL8P5Fy9admbVOMWkKAvXpmKDA7u-cesu-VpMqOKyLi5PISUZOuENOmmhWmfv5GXnQfQGzk2-wZb0ZnOIe6EB1LhXO9Fq5a3hU1AvP_mODQ0_0X9SMw8PTDZe6cXyA4287SFKdh0HTe243Z4JaNMlW8Xat6v4LwSY8dry0dKYocdldmYbtPq5_2NCHNt_CDp9zqDwEDbw50YksmESZrHBnMxMQXpa-MwB0VBvlvdyFkdEPt__s-ZLgtEQ5JD6Jt8OgbNxy1Kcp5Xx3l3wHuECWPwSS_GvQT-CAzXFExqAC4dEl5Z-BThFgdHd6OWQZ0UHRKjtNPIaXs-jOiMS2OshesYLV46oSLShmgjKKnn616bu3RPcv-ezMZHdtKNevlfF2tlwL7qOzfTz_-w7_UdmyLLrWOdfwRHh3ljtKo8VN121JCkNBc9RKn36dhDKGGzf6qJrCqztp17imIS-q2xpRjSS_LVu3FmWJOWaRuNdHGYSq6tCL83mZvS3XB4TAH56G8zPgbpLA5F2u0r3zQfUTKvrIZQQRXysObhihWtt2joNXbpiYw-55vf94ZU0QtMFnrJbNkeLQhJdRD3cTwULUhyj5RfpLQliecpIGoxyVZG-oWQDHnjV8yWdP8RcsQ6NYYTJXuRC_0vJ4RMZysAtDNQDVOhFS5hHwqMVSneixCTOH0I0MG4eB_9YNPXTUsopmv8gRUhrzeU_3PqkthTxJtVJ32FZRwiM7I90sbNQytaqkIIt2TSCYxemK5NmhObofKc7PHhIT9wzZM6EeVcfybwo5SjrcvO85mMnV0l?></g></svg>
